<svg width="161" height="109" viewBox="0 0 161 109" fill="none" xmlns="http://www.w3.org/2000/svg">
<path d="M8.83241 81.6867L0.578021 108.525H7.07336L8.56324 103.524H16.6151L18.0648 108.525H25.128L16.8742 81.6867H8.83241ZM10.1946 98.1257L12.6467 89.7784L15.0712 98.1257H10.1946ZM40.6475 96.2808C40.5521 96.1788 40.4527 96.0806 40.3494 95.9864C40.5526 95.91 40.7507 95.8285 40.9444 95.7396C41.7097 95.3939 42.4038 94.9096 42.9915 94.3113C43.581 93.7017 44.0406 92.9796 44.3423 92.1883C44.6568 91.3821 44.8165 90.4556 44.8165 89.4364C44.8165 88.0313 44.5618 86.816 44.0612 85.8231C43.5633 84.8286 42.8129 83.9812 41.8846 83.365C40.9746 82.7573 39.8677 82.3182 38.5941 82.0607C37.3703 81.8133 35.9917 81.6867 34.4981 81.6867H26.072V108.525H32.534V98.0386H32.7258C33.4327 98.0386 34.022 98.1933 34.527 98.5128C35.0282 98.8292 35.4125 99.2959 35.7037 99.9423L39.6092 108.525H47.1278L42.3827 98.9513C41.8079 97.7887 41.24 96.916 40.6475 96.2808V96.2808ZM37.8369 91.1321C37.6492 91.488 37.3772 91.7928 37.0445 92.0204C36.6791 92.276 36.2257 92.4721 35.6949 92.6036C35.1345 92.7433 34.4949 92.8135 33.7931 92.8135H32.534V87.1637H33.9541C35.4333 87.1637 36.5326 87.3948 37.2212 87.8515C37.8212 88.2493 38.113 88.9196 38.113 89.9018C38.113 90.3767 38.0225 90.7795 37.8369 91.1321V91.1321ZM66.0604 84.874C64.9724 83.7847 63.6001 82.969 61.9819 82.451C60.4046 81.9442 58.5481 81.6867 56.4645 81.6867H47.9183V108.525H55.3576C57.7582 108.525 59.8581 108.199 61.5983 107.557C63.3655 106.906 64.8415 105.962 65.9843 104.75C67.1251 103.541 67.9754 102.064 68.51 100.361C69.0345 98.6932 69.2999 96.8177 69.2999 94.7861C69.2999 92.5717 69.0338 90.6291 68.5081 89.0123C67.971 87.356 67.1477 85.964 66.0604 84.874V84.874ZM60.7769 101.185C59.655 102.426 58.0273 103.029 55.801 103.029H54.3797V87.1825H56.1425C57.3884 87.1825 58.4342 87.3579 59.2499 87.7043C60.0411 88.0394 60.653 88.513 61.1209 89.1507C61.5989 89.8047 61.9454 90.6254 62.1505 91.5882C62.3662 92.6068 62.4762 93.787 62.4762 95.0962C62.4762 97.8889 61.9046 99.9373 60.7769 101.185V101.185ZM84.8659 98.7603C84.8659 99.6855 84.7804 100.474 84.61 101.104C84.4515 101.693 84.2181 102.173 83.915 102.532C83.6283 102.874 83.2529 103.132 82.8295 103.277C82.3509 103.447 81.739 103.533 81.0095 103.533C80.2378 103.533 79.6013 103.435 79.1177 103.24C78.6735 103.067 78.2805 102.784 77.975 102.419C77.6693 102.053 77.4505 101.593 77.3241 101.051C77.1832 100.452 77.1121 99.7469 77.1121 98.9538V81.6867H70.6508V99.2445C70.6508 100.695 70.8313 102.027 71.186 103.202C71.5551 104.423 72.1639 105.479 72.9959 106.338C73.828 107.196 74.9173 107.86 76.2336 108.309C77.5128 108.748 79.0586 108.971 80.8277 108.971C82.4094 108.971 83.8609 108.748 85.1401 108.309C86.4483 107.862 87.5759 107.185 88.4922 106.296C89.4091 105.405 90.1204 104.284 90.6066 102.963C91.0846 101.666 91.3273 100.148 91.3273 98.4496V81.6867H84.8659V98.7603M94.6316 87.086H100.43V103.088H94.6316V108.525H112.771V103.088H106.973V87.086H112.771V81.6867H94.6316V87.086ZM130.753 96.9793L123.529 81.6867H116.216V108.525H122.234V92.9419L129.496 108.525H136.772V81.6867H130.753V96.9793M157.691 84.8621C155.804 82.4723 152.976 81.2607 149.286 81.2607C147.707 81.2607 146.202 81.5395 144.811 82.0889C143.4 82.6458 142.154 83.5128 141.105 84.6679C140.066 85.8131 139.241 87.2858 138.654 89.0442C138.074 90.7801 137.78 92.8617 137.78 95.2322C137.78 99.611 138.715 103.018 140.559 105.359C142.445 107.756 145.274 108.971 148.963 108.971C150.543 108.971 152.049 108.692 153.441 108.142C154.852 107.585 156.098 106.717 157.145 105.564C158.183 104.419 159.008 102.947 159.596 101.188C160.176 99.4525 160.47 97.3708 160.47 94.9991C160.47 90.6078 159.535 87.1969 157.691 84.8621V84.8621ZM153.438 98.8072C153.253 99.7976 152.965 100.633 152.58 101.29C152.215 101.916 151.764 102.374 151.201 102.691C150.64 103.006 149.941 103.165 149.125 103.165C147.51 103.165 146.384 102.566 145.684 101.336C144.914 99.9831 144.523 97.8519 144.523 94.9991C144.523 93.6598 144.62 92.4564 144.813 91.4247C144.998 90.4362 145.288 89.6024 145.678 88.9452C146.049 88.3169 146.502 87.8571 147.062 87.5395C147.615 87.2257 148.309 87.0666 149.125 87.0666C150.753 87.0666 151.882 87.6642 152.575 88.8933C153.339 90.2464 153.727 92.3794 153.727 95.2322C153.727 96.5753 153.63 97.778 153.438 98.8072V98.8072ZM151.136 3.59575H152.282V6.59826H153.095V3.59575H154.251V2.85029H151.136V3.59575ZM157.081 2.85029L156.296 5.4049L155.485 2.85029H154.424V6.59826H155.189V4.20402L155.947 6.59826H156.646L157.365 4.26603V6.59826H158.126V2.85029H157.081M119.665 75.3773C109.422 75.3773 100.663 71.9369 92.9555 64.9001C88.1941 60.5545 84.2685 55.2304 80.6566 49.6946C77.0455 55.2304 73.1192 60.5545 68.3584 64.9001C60.0763 72.4606 50.5811 75.8696 39.335 75.3203C17.8887 75.2275 0.469849 58.3689 0.469849 37.6601C0.469849 16.8944 17.9843 0 39.5123 0C51.293 0 61.2115 3.88328 69.8319 11.871C73.9726 15.7079 77.4681 20.1587 80.6566 24.8157C83.8452 20.1587 87.3413 15.7079 91.4814 11.871C100.102 3.88328 110.02 0 121.801 0C143.33 0 160.843 16.8944 160.843 37.6601C160.843 58.3689 143.425 75.2275 121.978 75.3203C121.208 75.3581 120.437 75.3771 119.665 75.3773ZM88.4997 37.1577C92.7725 44.0629 96.9195 50.4902 101.971 55.1008C107.673 60.3058 113.682 62.447 121.451 62.0379L121.801 62.0285C135.971 62.0285 147.499 51.0972 147.499 37.6601C147.499 24.2237 135.971 13.2917 121.801 13.2917C113.436 13.2917 106.69 15.9328 100.57 21.6027C96.0001 25.838 92.2266 31.2642 88.4997 37.1577V37.1577ZM39.5123 13.2917C25.3425 13.2917 13.814 24.2237 13.814 37.6601C13.814 51.0972 25.3425 62.0285 39.5123 62.0285L39.8626 62.0379C47.6322 62.447 53.6407 60.3058 59.3424 55.1008C64.3938 50.4902 68.5414 44.0629 72.8136 37.1577C69.0867 31.2642 65.3132 25.838 60.7436 21.6027C54.6237 15.9328 47.8774 13.2917 39.5123 13.2917V13.2917Z" fill="#00979C"/>
<path d="M123.566 32.8299V25.6221H116.034V32.8299H108.798V40.2957H116.034V47.5568H123.566V40.2957H130.802V32.8299H123.566ZM28.6775 32.7396H52.4608V40.4398H28.6775V32.7396V32.7396Z" fill="#00979C"/>
</svg>
