<svg width="110" height="124" viewBox="0 0 110 124" fill="none" xmlns="http://www.w3.org/2000/svg">
<g clip-path="url(#clip0_331_2)">
<path d="M109.994 36.4207C109.994 34.3381 109.549 32.4975 108.649 30.9178C107.767 29.3643 106.444 28.0623 104.67 27.0329C90.0264 18.572 75.3676 10.137 60.7286 1.66754C56.7819 -0.615692 52.9555 -0.532595 49.0377 1.78379C43.2089 5.22824 14.0267 21.9812 5.33027 27.0281C1.74926 29.1056 0.00644531 32.2848 0.00558594 36.4164C0 53.4324 0.00558594 70.4475 0 87.4635C0 89.5 0.42668 91.3053 1.28605 92.8614C2.16949 94.4617 3.51055 95.7995 5.32555 96.8522C14.0224 101.899 43.2085 118.651 49.0359 122.096C52.9551 124.413 56.7819 124.496 60.7299 122.212C75.3693 113.742 90.0286 105.308 104.675 96.847C106.49 95.7947 107.831 94.4561 108.714 92.8571C109.572 91.301 110 89.4961 110 87.4583C110 87.4583 110 53.4367 109.994 36.4207Z" fill="#649AD2"/>
<path d="M55.1685 61.7744L1.28564 92.8614C2.16951 94.4618 3.51057 95.7995 5.32557 96.8522C14.0224 101.899 43.2085 118.651 49.036 122.096C52.9551 124.413 56.7819 124.496 60.7299 122.212C75.3694 113.742 90.0286 105.308 104.675 96.847C106.49 95.7948 107.831 94.4562 108.714 92.8571L55.1685 61.7744Z" fill="#004482"/>
<path d="M39.209 70.9827C42.3444 76.4671 48.2384 80.1665 55 80.1665C61.8032 80.1665 67.7308 76.4206 70.8503 70.8768L55.1684 61.7744L39.209 70.9827Z" fill="#1A4674"/>
<path d="M109.994 36.4209C109.994 34.3383 109.549 32.4977 108.65 30.918L55.1685 61.7746L108.714 92.8573C109.572 91.3012 109.999 89.4963 110 87.4585C110 87.4585 110 53.4369 109.994 36.4209Z" fill="#01589C"/>
<path d="M107.05 63.9961H102.866V68.1897H98.6808V63.9961H94.4969V59.8042H98.6808V55.6114H102.866V59.8042H107.05V63.9961ZM55 25.3369C68.3784 25.3369 80.0757 32.5444 86.4403 43.295L86.631 43.6217L70.7322 52.7956C67.5813 47.3667 61.7182 43.7135 55 43.7135C44.9539 43.7135 36.8101 51.8738 36.8101 61.9397C36.8067 65.1124 37.6339 68.2305 39.209 70.9827C42.3444 76.4671 48.2385 80.1664 55 80.1664C61.7285 80.1664 67.6006 76.5024 70.7468 71.0589L70.8503 70.8768L86.726 80.0932C80.4311 91.1142 68.5812 98.543 55 98.543C41.4438 98.543 29.6124 91.1439 23.3089 80.1553C20.2314 74.791 18.4706 68.5716 18.4706 61.9397C18.4706 41.7252 34.8249 25.3369 55 25.3369ZM87.5983 55.611V59.8038H91.7821V63.9961H87.5983V68.1897H83.414V63.9961H79.2297V59.8042H83.414V55.6114H87.5983V55.611Z" fill="white"/>
</g>
<defs>
<clipPath id="clip0_331_2">
<rect width="110" height="124" fill="white"/>
</clipPath>
</defs>
</svg>
