<svg width="143" height="143" viewBox="0 0 143 143" fill="none" xmlns="http://www.w3.org/2000/svg">
<path d="M26.3746 121.554L16.3378 8.9375H126.662L116.612 121.537L71.433 134.062L26.3746 121.554Z" fill="#1572B6"/>
<path d="M71.5 124.49L108.01 114.369L116.599 18.1475H71.5V124.49Z" fill="#33A9DC"/>
<path d="M71.5 58.9472H89.7772L91.0374 44.8036H71.5V30.9907H106.133L105.802 34.6953L102.41 72.7601H71.5V58.9472Z" fill="white"/>
<path d="M71.5849 94.8181L71.5224 94.836L56.1409 90.68L55.1578 79.6646H41.2913L43.2262 101.351L71.5179 109.207L71.5849 109.19V94.8181Z" fill="#EBEBEB"/>
<path d="M88.6019 72.1748L86.9396 90.671L71.5358 94.8269V109.198L99.8498 101.351L100.06 99.0186L102.46 72.1748H88.6019Z" fill="white"/>
<path d="M71.5492 30.9907V44.8036H38.1855L37.9084 41.6978L37.2783 34.6953L36.9476 30.9907H71.5492ZM71.5 58.9472V72.7601H56.3107L56.0337 69.6544L55.408 62.6518L55.0774 58.9472H71.5Z" fill="#EBEBEB"/>
</svg>
