<svg width="120" height="76" viewBox="0 0 120 76" fill="none" xmlns="http://www.w3.org/2000/svg">
<path d="M120 65.0874C57.2629 73.293 12.4841 83.1491 11.8218 42.6941C11.8218 42.6941 13.1905 27.0193 32.4008 26.0323C32.4008 26.0323 33.0482 12.1102 47.7243 10.5339C55.6143 9.67914 64.5787 17.8116 65.5504 26.371C65.5504 26.371 84.966 22.7765 85.8051 41.7221C86.0994 48.3219 84.6126 59.5478 65.8888 59.0613C65.8888 59.0613 55.0551 57.5882 53.5827 40.8232C50.5358 73.278 97.4193 71.3925 98.0966 41.9135C98.391 29.1699 90.2357 16.0584 71.8654 18.5186C61.7966 -6.83538 34.9912 -5.37683 25.011 18.1358C10.7469 18.1358 -0.160402 29.1258 0.00178529 43.4752C0.546473 89.6607 64.7699 75.7386 120 65.0874Z" fill="#24339B"/>
</svg>
