<svg width="153" height="153" viewBox="0 0 153 153" fill="none" xmlns="http://www.w3.org/2000/svg">
<path d="M117.141 0H35.8594C16.0548 0 0 16.0548 0 35.8594V117.141C0 136.945 16.0548 153 35.8594 153H117.141C136.945 153 153 136.945 153 117.141V35.8594C153 16.0548 136.945 0 117.141 0Z" fill="#242938"/>
<path d="M136.266 109.333C134.526 109.992 132.605 109.991 130.866 109.33C129.127 108.668 127.69 107.393 126.828 105.744C121.411 97.6359 115.43 89.8932 109.681 81.9845L107.188 78.6615C100.343 87.8331 93.4973 96.639 87.25 105.778C86.4363 107.353 85.0776 108.579 83.4269 109.227C81.7763 109.876 79.9464 109.901 78.278 109.3L103.965 74.8401L80.0722 43.7022C81.7921 43.0811 83.6737 43.0725 85.3992 43.6779C87.1247 44.2833 88.5884 45.4656 89.5433 47.0251C95.0925 55.1341 101.241 62.8768 107.355 71.085C113.503 62.9431 119.584 55.167 125.266 47.125C126.085 45.5749 127.444 44.3799 129.086 43.7671C130.728 43.1544 132.538 43.1668 134.172 43.802L124.901 56.0976C120.747 61.5805 116.66 67.0968 112.34 72.4471C111.991 72.7586 111.713 73.1402 111.522 73.5668C111.331 73.9934 111.233 74.4555 111.233 74.9228C111.233 75.3902 111.331 75.8523 111.522 76.2789C111.713 76.7055 111.991 77.0871 112.34 77.3986C120.282 87.9329 128.157 98.5001 136.266 109.333ZM16.7344 74.408C17.4324 71.085 17.8639 67.4626 18.828 64.0733C24.5768 43.6364 48.0043 35.1288 64.1213 47.7901C73.5589 55.2011 75.9185 65.7019 75.4535 77.5319H22.2842C21.42 98.6668 36.6728 111.427 56.1791 104.914C59.3433 103.782 62.1758 101.88 64.4211 99.3795C66.6663 96.879 68.2535 93.8587 69.0395 90.5913C70.0698 87.2683 71.7313 86.7035 74.8881 87.667C74.3683 91.7125 72.938 95.5876 70.7049 99.0008C68.4717 102.414 65.4937 105.276 61.9949 107.373C56.2141 110.534 49.5817 111.787 43.0461 110.951C36.5106 110.116 30.4066 107.235 25.6072 102.721C20.859 97.382 17.988 90.6363 17.4324 83.5133C17.4324 82.3837 17.0003 81.2535 16.7678 80.1903C16.7459 78.2629 16.7347 76.3355 16.7344 74.408ZM22.3506 72.979H70.4356C70.1362 57.6598 60.4661 46.7933 47.5728 46.694C33.2171 46.4944 22.9488 57.1279 22.3171 72.9126L22.3506 72.979Z" fill="white"/>
</svg>
