<svg width="47" height="70" viewBox="0 0 47 70" fill="none" xmlns="http://www.w3.org/2000/svg">
<g clip-path="url(#clip0_332_14)">
<path d="M11.75 69.9998C18.236 69.9998 23.5 64.7732 23.5 58.3332V46.6665H11.75C5.264 46.6665 0 51.8932 0 58.3332C0 64.7732 5.264 69.9998 11.75 69.9998Z" fill="#0ACF83"/>
<path d="M0 35.0002C0 28.5602 5.264 23.3335 11.75 23.3335H23.5V46.6668H11.75C5.264 46.6668 0 41.4402 0 35.0002Z" fill="#A259FF"/>
<path d="M0 11.6667C0 5.22667 5.264 0 11.75 0H23.5V23.3333H11.75C5.264 23.3333 0 18.1067 0 11.6667Z" fill="#F24E1E"/>
<path d="M23.5 0H35.25C41.736 0 47 5.22667 47 11.6667C47 18.1067 41.736 23.3333 35.25 23.3333H23.5V0Z" fill="#FF7262"/>
<path d="M47 35.0002C47 41.4402 41.736 46.6668 35.25 46.6668C28.764 46.6668 23.5 41.4402 23.5 35.0002C23.5 28.5602 28.764 23.3335 35.25 23.3335C41.736 23.3335 47 28.5602 47 35.0002Z" fill="#1ABCFE"/>
</g>
<defs>
<clipPath id="clip0_332_14">
<rect width="47" height="70" fill="white"/>
</clipPath>
</defs>
</svg>
