<svg width="116" height="104" viewBox="0 0 116 104" fill="none" xmlns="http://www.w3.org/2000/svg">
<path d="M34.664 92.6122C30.2463 89.1146 25.5289 85.7628 22.3098 81.0508C15.5334 72.7343 10.3133 63.1063 6.74629 52.9876C4.5906 46.4053 3.84626 39.347 1.07189 33.0222C-1.83781 28.4365 1.56973 23.4136 6.57229 21.9466C8.79565 21.524 12.7204 19.4108 7.98848 20.9216C3.74476 24.05 3.33392 18.0798 7.68397 17.7058C10.6565 17.3074 11.744 14.864 10.729 12.6683C7.53897 10.5795 18.4624 8.28175 12.9669 5.16793C7.24897 -1.04512 20.9758 -2.23527 17.5924 4.80846C16.7853 10.2248 27.1819 3.81262 24.77 10.0694C27.2205 13.0763 33.9535 10.7495 33.7843 14.9709C37.361 15.2137 38.5839 18.2353 41.9382 18.4684C45.4183 20.0472 51.7113 21.2859 52.8907 25.2207C49.4445 27.9702 41.4646 19.5614 41.0827 27.1541C42.1219 38.3755 41.8561 49.9321 45.9354 60.6142C47.8688 67.0847 52.5572 72.1757 56.7816 77.218C60.8271 82.1535 66.3082 85.6219 71.8956 88.5511C76.7967 90.8731 82.0796 92.413 87.4253 93.3797C89.5906 91.7135 93.4187 85.5247 96.7924 88.1334C96.9519 91.0674 90.0837 94.2687 96.4686 93.9432C100.219 92.8065 102.82 96.8579 105.908 93.2048C108.75 96.5907 117.731 91.0383 115.705 97.9654C112.97 99.7337 108.977 98.6649 106.237 101.104C101.718 98.835 98.1168 103.134 93.1142 102.59C87.5531 103.556 81.9181 104.028 76.2747 103.999C67.0332 103.27 57.5936 102.959 48.8016 99.7239C43.8523 98.2812 39.0237 95.4443 34.6688 92.6122H34.664ZM42.4699 96.0126C47.3033 98.1112 52.0304 100.326 57.3278 100.997C65.7379 102.163 74.4235 103.979 82.8626 102.328C79.0442 100.593 75.0905 103.008 71.2866 101.089C66.7239 102.075 61.8276 100.836 57.1876 100.229C51.9095 97.8683 46.2158 96.2458 41.2809 93.1757C35.1086 90.912 44.4709 96.0806 46.1384 96.5033C49.9955 98.7038 41.8996 95.3714 40.754 94.4581C37.5253 92.6365 37.1097 93.0154 40.435 94.8662C41.1069 95.2548 41.7691 95.6726 42.4651 96.0078L42.4699 96.0126ZM33.2671 89.4741C37.9555 91.218 33.2478 86.1611 31.0921 86.4526C30.1448 84.7961 27.4622 83.7468 29.3521 82.8578C25.9494 84.0431 25.7899 78.3401 24.1803 79.1514C20.5843 78.0098 22.7787 73.9536 18.4963 71.4762C18.1048 68.853 14.2332 66.5795 12.9959 62.6253C12.4497 60.6045 8.62165 54.7898 10.9755 60.1965C12.9765 65.404 16.5001 69.8634 19.434 74.3179C21.7056 78.5587 24.3978 82.9939 28.5449 85.6365C29.9466 86.9869 31.2903 89.0515 33.2671 89.4741ZM19.7675 74.5754C19.927 73.8662 20.623 76.1153 19.7675 74.5754V74.5754ZM38.8787 91.5629C39.9179 91.0966 37.3803 90.98 38.8787 91.5629V91.5629ZM41.4211 92.4956C41.16 91.2083 40.261 93.2146 41.4211 92.4956V92.4956ZM44.6111 93.8315C46.1191 92.3742 42.2717 92.9182 44.6111 93.8315V93.8315ZM50.0583 96.8919C50.9815 95.522 47.11 96.3721 50.0583 96.8919V96.8919ZM39.5844 89.5421C41.9382 88.0119 36.5393 89.5227 39.5844 89.5421V89.5421ZM41.9721 90.7371C41.9044 89.9307 41.1214 91.1014 41.9721 90.7371V90.7371ZM53.9105 98.2278C55.8294 99.4422 65.124 100.9 59.2998 98.7281C58.3331 98.9321 48.5213 95.9398 53.9057 98.2278H53.9105ZM34.9588 83.3922C34.7655 82.581 31.9814 82.4935 34.9588 83.3922V83.3922ZM40.5172 86.6469C41.9672 85.6268 37.5157 85.8697 40.5172 86.6469V86.6469ZM45.1863 89.5275C47.2646 88.7406 41.8222 88.7357 45.1863 89.5275V89.5275ZM32.6968 80.9147C34.9491 82.6538 41.7836 81.1382 36.1478 79.8801C33.5861 78.5053 27.8006 77.5678 31.7398 80.7059L32.6968 80.9147ZM48.357 90.5234C49.2898 88.9203 44.4178 89.6004 48.357 90.5234V90.5234ZM43.6009 86.7197C49.111 88.2888 38.9705 83.2222 42.2427 86.1465L42.9677 86.4769L43.5961 86.7197H43.6009ZM53.1372 92.2576C58.3573 92.3062 48.4246 91.5435 53.1372 92.2576V92.2576ZM30.6909 77.8787C30.4879 76.9071 29.4052 77.9661 30.6909 77.8787V77.8787ZM61.963 97.2368C62.0983 95.4734 60.2568 98.5484 61.963 97.2368V97.2368ZM39.5844 83.3631C39.275 82.4352 37.9603 83.3242 39.5844 83.3631V83.3631ZM31.1839 77.2714C34.1806 77.0917 27.0852 75.9453 31.1839 77.2714V77.2714ZM21.2271 70.8009C20.855 69.3582 17.9694 68.2069 21.2271 70.8009V70.8009ZM47.3613 87.4873C46.8103 86.8558 47.1003 87.6233 47.3613 87.4873V87.4873ZM63.6305 97.5185C63.5822 96.5615 62.746 97.8829 63.6305 97.5185V97.5185ZM45.9209 85.9911C46.2109 84.7524 43.3689 85.617 45.9209 85.9911V85.9911ZM33.8085 78.2576C36.0318 78.0147 30.2318 76.7468 33.8085 78.2576V78.2576ZM54.3069 91.0674C57.7773 89.683 50.9235 90.3874 54.3069 91.0674V91.0674ZM43.6444 83.7954C47.6416 84.3103 38.8835 81.0605 42.7696 83.5039L43.6444 83.7954ZM57.5453 92.3839C61.2815 90.1396 60.049 97.64 63.8818 93.0154C67.6615 90.2465 60.6193 96.4498 65.2835 93.5157C68.6476 91.2472 73.626 94.5844 76.7677 95.6774C79.0297 95.5657 81.2289 97.6448 83.5489 96.3818C88.0101 95.1674 74.8198 94.5844 78.2805 92.447C74.1963 93.6372 71.1754 91.0189 69.1696 88.3908C64.5875 87.3221 59.2901 84.9758 57.0039 80.9002C56.0759 79.37 58.3573 81.1139 56.2016 78.617C53.4465 76.1493 52.0642 73.3464 50.2082 70.3492C47.9993 69.1639 47.7431 65.6712 47.516 70.2326C47.5353 67.3519 44.8431 65.4137 44.1906 66.2201C44.1809 63.4463 47.0665 64.8356 45.0413 62.7856C44.6063 59.9099 43.1756 56.9078 42.7454 53.6677C42.0784 52.1035 42.6487 48.7565 40.4592 52.2978C39.6617 56.0382 40.1934 47.6975 41.4356 50.4518C43.0644 47.6343 40.8555 47.9744 40.7589 48.363C41.8222 45.9924 41.4356 42.6309 40.4834 43.9133C41.0489 41.4019 41.3776 34.6739 39.6375 35.8689C40.6912 33.2457 41.6386 23.8557 37.0565 27.4358C35.2005 27.4601 31.9911 28.1159 30.4686 28.8737C35.2343 31.5115 29.9852 29.8258 28.0519 29.4081C27.8006 31.8467 25.8769 30.7925 23.4795 30.8168C27.3124 31.2929 21.6138 34.7516 19.4146 33.4109C16.5629 34.7807 21.8796 38.2055 19.4726 39.2644C19.7626 40.8578 15.0984 38.6815 15.4609 42.3734C12.6914 41.2027 15.0839 46.7454 16.4711 44.8703C21.1836 46.1527 19.7868 49.0771 19.9028 51.8509C19.1391 53.4685 16.1134 48.0472 19.2261 48.2999C16.7756 44.2825 16.5146 46.8425 14.4701 48.7128C13.9867 48.8488 19.6853 51.3699 16.1134 52.6135C19.2551 53.0993 19.3421 55.8682 19.9801 57.617C21.8651 59.5941 21.4785 55.431 23.7453 57.8113C22.3147 55.6933 16.1714 51.846 21.116 53.0799C21.0918 50.9425 20.2218 49.2277 21.7395 49.2714C23.2378 46.5413 20.1686 56.0091 23.552 52.5358C24.4848 52.1229 24.712 49.8009 26.4037 52.7544C28.8446 55.1736 27.2834 56.9223 23.8372 54.7121C24.451 56.8155 28.4482 57.5636 27.6991 60.8571C28.4966 63.7475 29.6082 62.6836 30.5798 62.5185C31.3434 65.3262 31.7736 63.2617 31.8123 61.921C35.2923 62.6739 34.4803 64.7385 35.5727 66.1958C37.9748 67.2839 32.1313 58.8023 36.259 63.6406C40.5994 67.5754 37.8878 69.227 33.9873 68.5955C36.4523 68.3963 37.2498 71.9473 40.3335 71.8211C43.1466 73.1666 45.0461 78.3304 40.203 76.1784C38.521 74.658 32.5663 72.778 37.4335 75.6732C41.9237 77.7621 45.4811 79.0154 49.8118 81.6337C52.9052 83.8585 54.2489 86.404 55.4186 86.9092C52.8182 88.1577 47.574 85.9085 51.4697 85.2187C49.0385 84.7766 46.3076 83.5428 48.6325 86.5789C50.6142 88.2451 55.6409 88.0653 56.5447 88.2548C55.7762 89.9453 54.4664 90.0813 56.5737 90.2125C54.2247 91.4755 57.3278 91.6698 57.5453 92.3887V92.3839ZM52.7409 78.7433C51.3102 77.2374 50.938 74.4199 52.4847 76.8731C53.2774 77.1937 55.0222 81.4734 52.7409 78.7433ZM68.3914 88.7357C69.2856 88.6823 68.4204 89.4158 68.3914 88.7357V88.7357ZM50.4788 75.0563C50.4305 72.7829 50.996 76.8051 50.4788 75.0563V75.0563ZM48.9225 72.9529C47.1245 69.4553 51.1942 73.9439 48.9225 72.9529V72.9529ZM30.0723 59.8759C31.1308 59.5844 30.5943 61.6927 30.0723 59.8759V59.8759ZM45.0751 68.0466C45.7228 65.5983 45.8388 70.1063 45.0751 68.0466V68.0466ZM34.4803 60.6385C33.7311 59.2881 36.0415 61.9015 34.4803 60.6385V60.6385ZM43.5767 63.5726C41.8754 59.735 44.7851 61.4741 43.9538 64.2041L43.5767 63.5726ZM27.8876 53.0556C27.1239 51.7926 25.8672 48.1007 26.2732 46.9737C26.6405 48.8099 30.1593 54.8772 27.9987 49.49C25.611 44.9723 30.8504 50.957 31.3918 52.084C31.6334 53.2013 29.9176 51.778 31.0824 54.406C28.9557 51.4088 29.8257 56.0577 27.8876 53.0556ZM23.0397 49.6989C23.233 46.7697 24.1513 51.7051 23.0397 49.6989V49.6989ZM25.2147 50.4518C26.2587 48.2416 26.9837 53.5316 25.2147 50.4518V50.4518ZM19.9753 46.3713C18.1676 44.574 16.8626 42.9078 20.0575 45.254C21.29 45.3026 17.3218 41.4747 20.3475 44.0396C23.5375 44.6225 21.928 49.2957 19.9753 46.3713ZM22.7303 46.2985C23.7792 45.254 23.2862 47.3283 22.7303 46.2985V46.2985ZM24.422 46.8474C22.8367 43.8502 26.3554 48.1007 24.422 46.8474V46.8474ZM21.0531 43.6073C15.8041 38.9147 27.6507 46.0653 21.9086 44.4817L21.0531 43.6073ZM36.085 52.3901C33.8133 51.0202 35.4905 42.7523 36.2638 48.4067C38.4727 47.6878 36.143 51.3214 37.7863 51.2922C37.5302 53.5899 36.7907 54.4158 36.0947 52.3901H36.085ZM41.6434 55.6933C41.8754 53.2013 42.1219 57.3936 41.6434 55.6933V55.6933ZM40.6767 54.7315C40.9377 53.6628 40.7105 55.9848 40.6767 54.7315V54.7315ZM22.0875 42.0674C18.7186 37.3894 31.8848 46.794 24.248 43.2527C23.4505 43.0438 22.4887 42.9612 22.0875 42.0674ZM32.7983 47.7752C32.4793 43.8404 33.5088 48.4262 32.7983 47.7752V47.7752ZM40.9281 53.0167C41.5564 50.7724 40.9764 54.4983 40.9281 53.0167V53.0167ZM22.5998 40.2797C24.6057 39.8522 30.9036 43.821 25.1132 41.4164C24.4752 40.6975 23.1025 41.0278 22.5998 40.2797ZM39.8067 48.9022C40.0194 44.8703 41.0054 46.4976 39.8164 49.4754L39.8067 48.9022ZM24.0933 38.8807C24.9102 37.676 21.9183 33.44 24.5235 37.3602C25.6449 38.2589 27.7716 38.8661 25.8914 39.2402C28.8397 41.8585 25.1664 39.9494 24.0933 38.8807ZM38.956 47.6441C39.5215 43.0583 39.4539 50.3304 38.956 47.6441V47.6441ZM22.3872 34.6447C23.0107 34.3776 22.7158 35.4803 22.3872 34.6447V34.6447ZM26.2635 36.9667C27.2592 34.8585 28.1002 39.313 26.2635 36.9667V36.9667ZM37.2015 43.0826C37.1918 42.2714 37.4093 44.2582 37.2015 43.0826V43.0826ZM36.5683 41.6739C35.0506 37.9043 37.9797 43.6656 36.5683 41.6739V41.6739ZM35.6355 39.1964C35.3793 37.642 36.5055 41.159 35.6355 39.1964V39.1964ZM37.1532 36.719C36.1092 34.873 38.4678 28.592 38.7289 32.4927C37.6317 35.5288 38.4147 37.229 39.1784 33.1534C40.5945 29.9473 38.8739 39.483 37.1483 36.7238L37.1532 36.719ZM38.7095 27.3775C39.1639 26.8189 38.8062 28.0528 38.7095 27.3775V27.3775ZM36.1043 78.9328C35.4856 78.3936 36.1817 79.2728 36.1043 78.9328V78.9328ZM41.4694 81.6531C44.4419 82.4304 44.4274 81.1916 41.7352 80.8273C40.2852 79.4671 35.7128 78.0341 39.8019 80.6573C40.0774 81.3471 40.9377 81.3325 41.4646 81.658L41.4694 81.6531ZM30.8794 74.59C32.5228 75.819 37.0662 78.0827 33.2188 75.0563C34.519 73.5407 30.7344 72.7343 31.9911 71.7239C28.8011 69.7614 29.4777 69.9362 31.7108 69.9945C27.8731 68.2749 32.2618 68.4012 32.0491 67.5171C30.5749 67.2256 24.7024 64.8939 28.1631 67.7114C24.654 65.914 27.3269 68.3818 26.2684 68.1194C22.6772 67.1382 29.4584 70.8641 25.698 69.9411C27.7522 71.5782 31.2371 74.1382 26.568 71.6753C25.9494 72.5643 29.9031 73.9099 30.8794 74.59ZM36.4862 77.8301C43.3012 80.0355 33.1463 75.1292 36.4862 77.8301V77.8301ZM65.1965 95.3083C65.2932 93.9481 64.2637 96.4741 65.1965 95.3083V95.3083ZM68.1497 96.5567C69.7206 95.0265 68.2126 99.0001 70.7598 96.1826C70.7839 94.1667 70.6776 92.9765 67.8307 95.4248C67.0477 95.862 66.6997 97.7225 68.1497 96.5567ZM21.3045 66.9876C20.8211 65.0785 17.9211 65.0931 21.3045 66.9876V66.9876ZM24.4558 69.0667C23.2862 67.1139 20.2798 67.2985 24.4558 69.0667V69.0667ZM42.3877 79.9335C44.1374 81.488 50.4208 81.0799 44.5144 80.1278C43.6347 78.8162 38.9512 79.1368 42.3877 79.9335ZM67.0235 95.2305C69.7206 92.9571 64.4135 96.2409 67.0235 95.2305V95.2305ZM72.6303 99.0973C72.6448 98.3686 71.4703 99.4179 72.6303 99.0973V99.0973ZM72.6351 98.0772C75.6173 94.9002 69.7447 98.2666 72.6351 98.0772V98.0772ZM13.5565 60.4685C11.0142 56.8252 11.976 55.1833 9.52066 52.2103C9.05666 49.9272 5.31561 44.7634 7.58731 50.2381C9.66566 53.4393 10.2843 58.3942 13.5565 60.4685ZM71.7023 97.0667C77.1882 93.5012 69.4499 95.5123 71.7023 97.0667V97.0667ZM75.888 98.7184C78.643 96.3478 74.148 98.2229 75.888 98.7184V98.7184ZM20.3716 62.9557C21.1595 61.7801 18.3416 62.8051 20.3716 62.9557V62.9557ZM75.0131 97.5865C77.6763 95.862 74.4041 96.1292 74.5298 97.742L75.0131 97.5865ZM38.9077 74.7066C38.811 73.5407 37.5012 74.8037 38.9077 74.7066V74.7066ZM41.1311 76.0036C40.4302 74.5608 40.0484 76.2319 41.1311 76.0036V76.0036ZM79.2859 98.7572C82.6934 96.2798 77.2172 98.2812 78.5705 99.2236L79.2859 98.7572ZM77.9808 98.1257C80.7552 95.7843 75.047 99.1604 77.9808 98.1257V98.1257ZM84.6509 102.585C86.5166 101.332 82.3841 102.182 84.6509 102.585V102.585ZM22.0875 62.1056C24.5863 62.6691 32.0733 68.2943 27.6556 62.4942C25.3935 61.8238 26.7517 56.2617 24.4413 57.2478C25.988 59.8467 25.7174 60.9543 22.4597 59.3172C18.3754 57.311 20.1686 60.3082 20.9613 61.134C19.8786 61.3866 22.4065 62.0861 22.0875 62.1056ZM10.7 53.0702C11.1447 51.2096 6.57713 42.8349 8.54432 48.8731C9.24999 50.1361 9.17266 52.5358 10.7 53.0702ZM31.5996 66.0209C30.3139 64.9376 31.5368 65.8655 31.5996 66.0209V66.0209ZM34.7703 66.7593C34.7703 64.7919 31.2661 65.9626 34.7703 66.7593V66.7593ZM62.2288 84.1646C61.7068 82.8141 60.1601 84.1354 62.2288 84.1646V84.1646ZM63.5483 85.1313C63.355 84.3783 62.7895 85.277 63.5483 85.1313V85.1313ZM74.4331 92.0293C75.4771 91.252 73.1281 91.9321 74.4331 92.0293V92.0293ZM16.3841 54.5275C19.3808 53.3616 13.1747 53.7017 16.3841 54.5275V54.5275ZM59.8073 82.032C59.7734 80.0841 57.8981 82.5178 59.8073 82.032V82.032ZM15.1951 51.7634C17.1236 51.1076 13.4212 51.3262 15.1951 51.7634V51.7634ZM20.7825 54.4838C20.7486 53.8377 20.1928 54.7266 20.7825 54.4838V54.4838ZM88.885 96.4547C91.3597 95.9495 96.9954 97.7177 97.9041 95.794C94.9074 95.7212 87.5123 93.6663 87.1643 96.2798L87.8216 96.3915L88.885 96.4547ZM22.5563 54.9307C22.5998 52.9536 21.0241 54.8578 22.5563 54.9307V54.9307ZM7.87731 44.6905C7.2103 40.9258 5.33978 44.1173 7.87731 44.6905V44.6905ZM11.3767 45.5747C11.4202 44.3602 8.17215 44.4865 11.3767 45.5747V45.5747ZM13.3777 46.5608C12.7977 46.0896 12.9234 47.1534 13.3777 46.5608V46.5608ZM25.9687 54.6732C26.5584 54.1291 24.567 54.27 25.9687 54.6732V54.6732ZM12.0485 44.3359C11.7102 41.4942 7.98848 43.9085 12.0485 44.3359V44.3359ZM4.8661 39.6531C4.76944 38.3415 4.1701 40.1486 4.8661 39.6531V39.6531ZM5.92945 38.8418C5.76028 37.2873 5.01111 39.0361 5.92945 38.8418V38.8418ZM11.8262 42.3831C14.3299 41.397 7.2828 40.3429 11.3235 42.1888L11.8262 42.3831ZM90.7748 91.3929C92.3699 89.921 88.7448 90.9363 90.7748 91.3929V91.3929ZM100.316 96.3624C100.954 94.4581 98.7016 96.6053 100.316 96.3624V96.3624ZM12.4352 39.2742C12.701 37.4282 10.4535 39.6385 12.4352 39.2742V39.2742ZM4.04443 33.6295C3.59492 31.0306 3.65776 26.4691 7.96914 28.0139C2.21257 29.1603 11.9519 35.2034 10.7242 30.4331C13.1409 30.5497 15.4609 28.9952 14.1849 31.356C18.9554 30.8217 22.2567 26.6732 26.8677 27.2512C30.4541 26.7752 34.3788 26.4157 38.2455 24.9632C41.4259 24.7301 44.4806 21.2908 42.7406 19.2554C38.4099 18.8862 33.8713 19.4303 29.0766 20.3872C23.7695 21.4948 18.9458 23.6031 13.5855 24.5115C8.36548 25.2158 14.6344 26.4546 13.1409 26.7266C10.4148 27.6787 16.3889 28.3199 12.788 29.3206C10.5647 28.8932 8.24465 28.1256 9.19683 25.7745C4.19426 26.4206 -0.204125 28.5094 3.74959 33.6246H4.03959L4.04443 33.6295ZM16.0989 27.4601C17.2734 23.1173 22.3823 31.0306 18.0226 28.0333C17.5006 27.6447 16.6451 27.3241 16.0989 27.4504V27.4601ZM16.3261 25.3519C18.0178 24.0888 17.2251 26.0611 16.3261 25.3519V25.3519ZM18.4769 25.3907C18.6316 23.3942 23.3973 26.4497 19.2648 26.1097L18.4769 25.3907ZM21.4156 24.2006C22.4887 22.9376 21.725 25.3179 21.4156 24.2006V24.2006ZM22.1697 23.6954C23.958 21.5385 32.2956 22.3206 26.191 23.4865C24.5573 22.2478 23.3007 24.2151 22.1697 23.6954ZM33.0448 22.0097C32.7789 16.1124 38.4534 24.1083 33.0448 22.0097V22.0097ZM36.1382 21.9903C37.2643 19.0174 40.5172 20.8002 36.6602 21.3928C36.7423 21.7086 36.5442 22.9278 36.1382 21.9903ZM11.222 37.7537C14.5909 35.6794 7.64047 35.9563 11.222 37.7537V37.7537ZM13.7112 38.4532C14.8954 37.1902 11.1447 37.9383 13.7112 38.4532V38.4532ZM6.36446 33.2068C8.29298 31.7252 4.08793 32.6433 6.36446 33.2068V33.2068ZM105.942 95.8232C106 94.0987 104.473 96.6004 105.942 95.8232V95.8232ZM95.8257 88.8766C96.1157 86.8946 94.5207 89.0563 95.8257 88.8766V88.8766ZM108.731 96.4935C111.423 96.4935 116.89 95.6531 111.027 95.6531C110.108 95.7989 105.667 95.7697 108.726 96.4935H108.731ZM15.9007 37.229C18.0758 37.0833 19.3131 34.8148 15.4802 34.9459C9.53516 34.329 20.7196 36.9862 14.7166 36.2284C13.9094 36.7627 15.8572 37.3796 15.9007 37.2339V37.229ZM17.8244 38.2103C17.5924 36.8016 17.1478 38.9584 17.8244 38.2103V38.2103ZM20.0961 32.1041C21.0483 30.9237 18.7911 31.7884 20.0961 32.1041V32.1041ZM12.846 19.9209C16.7418 18.5899 22.0633 17.0986 23.9 20.5767C22.0295 18.313 23.146 16.0881 24.915 19.3963C27.409 22.7433 28.6609 17.8758 27.032 16.7488C28.8832 19.0611 30.9906 20.1492 28.2742 16.8945C31.2226 13.3289 22.363 17.3657 20.3475 17.322C19.3808 17.7592 10.3375 19.6392 12.8509 19.9209H12.846ZM15.1274 15.5344C17.3508 13.8487 22.8028 16.5351 19.3034 13.8584C18.9651 13.5573 11.6377 15.889 15.1274 15.5344ZM23.2185 15.8695C25.8189 15.9327 22.102 12.3623 25.1954 13.975C24.6878 12.3088 21.5896 11.9979 20.072 11.3324C19.2213 12.8577 21.812 15.889 23.2137 15.8695H23.2185ZM16.5484 8.48577C17.4474 7.26162 14.9727 9.10756 16.5484 8.48577V8.48577ZM19.8545 9.28244C24.0402 8.7238 18.7911 7.4705 19.0134 9.23387L19.8545 9.28244ZM13.6822 4.4247C10.7338 0.557934 19.2213 5.07564 16.2294 1.02428C13.7064 -0.991686 11.2849 3.2977 13.6822 4.4247ZM51.4987 24.9001C52.852 22.4907 45.9161 21.6551 50.59 24.05C51.025 24.1957 50.9283 25.0701 51.4987 24.9001Z" fill="black"/>
</svg>
