<svg id="svg" version="1.1" xmlns="http://www.w3.org/2000/svg" xmlns:xlink="http://www.w3.org/1999/xlink" width="400" height="400" viewBox="0, 0, 400,400"><g id="svgg"><path id="path0" d="M180.946 89.800 C 180.863 90.020,180.841 118.010,180.897 152.000 L 181.000 213.800 196.500 213.905 L 212.000 214.009 212.000 188.605 L 212.000 163.200 232.406 163.200 L 252.813 163.200 252.706 152.389 L 252.600 141.578 232.400 141.489 L 212.200 141.400 212.095 126.500 L 211.990 111.600 235.995 111.600 L 260.000 111.600 260.000 100.500 L 260.000 89.400 220.549 89.400 C 194.616 89.400,181.046 89.537,180.946 89.800 M205.839 286.397 C 200.857 287.988,196.756 292.164,195.545 296.878 C 194.638 300.411,194.776 321.958,195.724 324.675 C 199.456 335.373,217.947 338.091,226.795 329.243 C 232.325 323.713,232.063 311.140,226.315 306.220 C 221.661 302.237,212.820 301.754,208.032 305.223 L 206.469 306.355 206.203 304.423 C 204.909 295.013,214.260 289.235,218.762 296.662 L 219.800 298.375 224.751 298.387 L 229.702 298.400 229.437 296.741 C 228.051 288.074,216.475 283.000,205.839 286.397 M248.600 286.137 C 243.354 287.870,240.288 290.876,238.337 296.200 C 236.430 301.402,236.832 321.177,238.938 325.776 C 243.825 336.452,263.604 337.847,269.991 327.966 C 274.580 320.865,274.493 297.580,269.854 291.497 C 266.216 286.728,255.211 283.953,248.600 286.137 M165.800 286.549 C 158.668 287.720,154.517 291.318,153.738 297.002 L 153.491 298.800 158.738 298.800 L 163.984 298.800 164.753 297.300 C 167.706 291.542,175.993 292.583,175.999 298.713 C 176.002 302.887,174.176 304.433,168.900 304.721 L 165.600 304.900 165.600 308.614 L 165.600 312.328 169.100 312.594 C 175.861 313.108,177.676 314.640,177.725 319.873 C 177.791 326.882,168.876 328.952,164.819 322.870 L 163.438 320.800 158.155 320.800 L 152.872 320.800 153.368 322.900 C 155.123 330.337,161.442 334.378,171.342 334.394 C 182.374 334.413,188.662 329.565,189.118 320.691 C 189.438 314.478,187.880 311.667,182.834 309.351 C 179.892 308.000,179.892 308.156,182.847 306.253 C 186.979 303.594,188.253 300.472,187.226 295.524 C 185.644 287.905,177.728 284.589,165.800 286.549 M258.386 294.301 C 261.457 295.849,262.602 303.405,261.731 316.369 C 261.207 324.179,259.973 325.999,255.200 325.999 C 249.439 325.999,249.000 324.851,249.000 309.799 C 249.000 294.748,249.439 293.601,255.200 293.601 C 256.190 293.601,257.624 293.916,258.386 294.301 M216.681 311.584 C 222.132 314.908,219.777 325.388,213.461 325.912 C 208.157 326.351,206.016 323.546,206.003 316.134 C 205.996 312.446,213.118 309.411,216.681 311.584 " stroke="none" fill="#fbfbfa" fill-rule="evenodd"></path><path id="path1" d="M154.100 38.300 C 183.305 38.357,231.095 38.357,260.300 38.300 C 289.505 38.243,265.610 38.197,207.200 38.197 C 148.790 38.197,124.895 38.243,154.100 38.300 M98.661 38.899 C 98.763 39.064,98.510 39.154,98.098 39.099 C 97.687 39.045,86.703 45.390,73.691 53.200 L 50.032 67.400 50.016 180.543 C 50.001 288.128,50.034 293.674,50.700 293.442 C 51.284 293.239,51.271 293.298,50.624 293.799 C 48.678 295.305,51.213 293.892,62.821 287.000 C 69.677 282.930,75.356 279.600,75.443 279.600 C 75.529 279.600,75.600 294.232,75.600 312.116 C 75.600 350.582,75.456 349.336,80.502 354.671 C 82.317 356.590,83.694 357.523,82.962 356.338 C 82.784 356.050,82.852 355.985,83.145 356.166 C 83.402 356.325,83.514 356.616,83.392 356.812 C 83.142 357.218,86.355 358.979,86.705 358.628 C 86.831 358.503,86.693 358.400,86.400 358.400 C 86.107 358.400,85.950 358.317,86.052 358.215 C 86.154 358.113,87.129 358.338,88.219 358.715 C 90.071 359.355,98.688 359.407,220.900 359.504 L 351.600 359.608 351.600 224.204 L 351.600 88.800 341.100 88.710 L 330.600 88.620 341.200 88.400 L 351.800 88.180 341.306 88.090 L 330.813 88.000 330.700 76.900 L 330.587 65.800 330.403 77.400 L 330.218 89.000 330.000 77.400 C 329.880 71.020,329.741 110.395,329.691 164.900 L 329.600 264.000 214.374 264.000 L 99.149 264.000 88.274 270.659 C 82.293 274.322,76.770 277.672,76.000 278.105 C 72.094 280.299,71.221 280.911,71.456 281.290 C 71.600 281.524,71.470 281.618,71.156 281.506 C 70.373 281.227,69.122 281.950,69.454 282.488 C 69.636 282.781,69.498 282.846,69.057 282.677 C 68.661 282.525,68.082 282.704,67.658 283.109 C 67.259 283.489,66.678 283.855,66.367 283.922 C 66.055 283.989,65.619 284.259,65.399 284.522 C 65.178 284.785,64.728 285.055,64.399 285.122 C 64.069 285.189,63.619 285.459,63.399 285.722 C 63.178 285.985,62.728 286.260,62.399 286.333 C 61.391 286.556,57.200 289.233,57.200 289.653 C 57.200 289.870,56.992 289.919,56.738 289.762 C 56.431 289.572,56.386 289.654,56.604 290.006 C 56.842 290.392,56.748 290.466,56.257 290.277 C 55.861 290.125,55.282 290.304,54.858 290.709 C 54.459 291.089,53.878 291.455,53.567 291.522 C 53.255 291.589,52.775 291.938,52.500 292.298 C 52.225 292.658,52.000 292.822,52.000 292.662 C 52.000 292.503,51.640 292.565,51.200 292.800 C 50.401 293.228,50.400 293.104,50.400 180.481 C 50.400 87.253,50.492 67.733,50.929 67.733 C 51.704 67.733,64.400 60.023,64.400 59.552 C 64.400 59.333,64.573 59.260,64.785 59.391 C 64.997 59.522,65.507 59.308,65.919 58.915 C 66.330 58.522,66.922 58.145,67.233 58.078 C 67.545 58.011,67.981 57.741,68.201 57.478 C 68.422 57.215,68.872 56.945,69.201 56.878 C 69.531 56.811,69.981 56.541,70.201 56.278 C 70.422 56.015,70.872 55.745,71.201 55.678 C 71.531 55.611,71.981 55.341,72.201 55.078 C 72.422 54.815,72.872 54.545,73.201 54.478 C 73.531 54.411,73.998 54.099,74.240 53.784 C 74.481 53.470,74.792 53.325,74.930 53.463 C 75.068 53.602,75.294 53.420,75.432 53.060 C 75.571 52.699,75.873 52.521,76.104 52.664 C 76.368 52.828,76.402 52.727,76.196 52.394 C 75.957 52.007,76.052 51.934,76.550 52.125 C 76.950 52.279,77.313 52.170,77.432 51.860 C 77.543 51.570,77.866 51.333,78.149 51.333 C 78.909 51.333,87.600 46.016,87.600 45.551 C 87.600 45.332,87.773 45.260,87.985 45.391 C 88.197 45.522,88.707 45.308,89.119 44.915 C 89.530 44.522,90.122 44.145,90.433 44.078 C 90.745 44.011,91.181 43.741,91.401 43.478 C 91.622 43.215,92.072 42.945,92.401 42.878 C 92.731 42.811,93.181 42.541,93.401 42.278 C 93.622 42.015,94.072 41.745,94.401 41.678 C 94.731 41.611,95.225 41.262,95.500 40.902 C 95.775 40.542,96.000 40.375,96.000 40.532 C 96.000 40.688,96.713 40.453,97.584 40.008 C 99.160 39.204,99.693 39.200,206.884 39.103 C 266.128 39.049,300.830 38.959,284.000 38.903 C 203.366 38.633,98.496 38.631,98.661 38.899 M316.000 39.200 C 315.196 39.457,315.157 39.523,315.800 39.532 C 316.240 39.538,316.960 39.389,317.400 39.200 C 318.419 38.762,317.368 38.762,316.000 39.200 M319.266 39.950 C 318.841 40.220,318.869 40.341,319.403 40.546 C 319.771 40.687,320.236 40.701,320.436 40.578 C 320.636 40.454,320.800 40.554,320.800 40.800 C 320.800 41.046,320.980 41.136,321.200 41.000 C 321.420 40.864,321.600 40.913,321.600 41.109 C 321.600 41.578,325.300 44.230,325.749 44.082 C 325.941 44.019,326.006 44.207,325.894 44.500 C 325.654 45.125,326.631 46.600,327.284 46.600 C 327.531 46.600,327.817 46.850,327.919 47.156 C 328.030 47.490,327.926 47.601,327.656 47.435 C 327.367 47.256,327.298 47.389,327.460 47.813 C 327.663 48.342,327.783 48.365,328.088 47.934 C 328.352 47.560,328.406 47.700,328.270 48.400 C 328.163 48.950,328.226 49.760,328.410 50.200 L 328.744 51.000 328.800 50.200 L 328.856 49.400 329.204 50.200 C 329.396 50.640,329.497 51.990,329.430 53.200 C 329.357 54.513,329.399 54.835,329.534 54.000 C 329.757 52.625,329.766 52.635,330.033 54.600 C 330.279 56.402,330.294 56.342,330.184 53.994 C 329.949 48.973,327.162 44.176,322.779 41.249 C 320.107 39.466,320.059 39.448,319.266 39.950 M49.397 180.800 C 49.397 242.950,49.443 268.375,49.500 237.300 C 49.557 206.225,49.557 155.375,49.500 124.300 C 49.443 93.225,49.397 118.650,49.397 180.800 M76.400 311.516 C 76.400 350.283,76.279 349.134,80.913 354.340 L 82.569 356.200 80.926 354.659 C 75.950 349.993,76.000 350.428,76.000 311.692 C 76.000 286.896,75.886 278.823,75.538 279.038 C 75.252 279.215,75.185 279.148,75.362 278.862 C 76.303 277.339,76.400 280.386,76.400 311.516 M217.363 285.780 C 224.686 287.181,228.901 290.947,229.486 296.609 L 229.712 298.800 224.704 298.800 L 219.697 298.800 219.219 297.647 C 218.033 294.783,215.180 293.408,211.751 294.049 C 207.771 294.792,206.722 296.408,206.473 302.179 L 206.301 306.157 207.450 305.399 C 220.981 296.470,236.322 310.297,229.642 325.398 C 224.378 337.299,201.891 337.868,196.204 326.243 C 194.293 322.339,193.756 303.178,195.386 297.064 C 197.753 288.182,206.484 283.699,217.363 285.780 M262.365 286.354 C 267.072 287.827,269.971 290.407,272.081 295.000 C 274.203 299.618,273.569 321.192,271.164 326.262 C 265.582 338.024,244.599 337.635,238.700 325.659 L 237.400 323.020 237.272 311.708 C 237.132 299.297,237.331 297.466,239.237 293.653 C 242.836 286.449,252.710 283.333,262.365 286.354 M180.686 287.164 C 185.031 289.085,187.600 293.277,187.600 298.447 C 187.600 302.277,186.333 304.276,182.240 306.902 C 181.054 307.664,180.501 308.227,180.840 308.329 C 188.405 310.613,191.777 318.566,188.332 326.000 C 182.050 339.557,155.655 336.794,152.987 322.300 L 152.711 320.800 158.307 320.800 L 163.903 320.800 164.378 321.947 C 167.164 328.673,177.624 326.925,177.591 319.740 C 177.570 314.965,175.573 313.239,169.623 312.850 L 165.800 312.600 165.687 308.600 L 165.575 304.600 168.785 304.511 C 173.555 304.380,175.268 303.227,175.818 299.779 C 176.825 293.474,168.282 291.183,165.200 296.933 L 164.200 298.798 158.682 298.799 L 153.164 298.800 153.424 297.300 C 154.093 293.437,156.751 289.657,159.945 288.028 C 164.299 285.807,176.468 285.300,180.686 287.164 M251.323 294.832 C 249.287 296.136,249.131 297.221,249.123 310.150 C 249.116 320.196,249.208 322.055,249.764 323.131 C 251.671 326.819,258.821 326.678,260.617 322.918 C 262.024 319.971,262.024 299.553,260.616 296.831 C 259.120 293.938,254.328 292.907,251.323 294.832 M211.200 311.397 C 210.210 311.714,208.705 312.549,207.855 313.253 L 206.310 314.532 206.477 318.166 C 206.744 324.015,208.176 325.800,212.600 325.800 C 216.885 325.800,218.899 323.692,219.138 318.955 C 219.461 312.556,216.471 309.708,211.200 311.397 " stroke="none" fill="#943c04" fill-rule="evenodd"></path><path id="path2" d="M96.000 40.908 C 90.814 43.881,51.425 67.693,50.899 68.173 C 50.500 68.537,50.419 91.413,50.499 180.928 L 50.600 293.226 68.800 282.292 C 78.810 276.279,89.632 269.748,92.848 267.780 L 98.697 264.200 98.976 165.000 C 99.129 110.440,99.198 59.812,99.128 52.494 L 99.000 39.189 96.000 40.908 M212.262 111.900 C 212.093 112.172,229.779 112.168,252.000 111.891 C 256.730 111.832,249.766 111.742,236.524 111.692 C 223.282 111.641,212.364 111.735,212.262 111.900 M212.188 188.800 C 212.188 202.550,212.238 208.175,212.300 201.300 C 212.361 194.425,212.361 183.175,212.300 176.300 C 212.238 169.425,212.188 175.050,212.188 188.800 M254.500 293.876 C 254.885 293.976,255.515 293.976,255.900 293.876 C 256.285 293.775,255.970 293.693,255.200 293.693 C 254.430 293.693,254.115 293.775,254.500 293.876 M248.909 306.800 C 248.909 307.790,248.987 308.195,249.082 307.700 C 249.178 307.205,249.178 306.395,249.082 305.900 C 248.987 305.405,248.909 305.810,248.909 306.800 M248.914 314.600 C 248.917 315.700,248.995 316.103,249.087 315.495 C 249.179 314.886,249.177 313.986,249.082 313.495 C 248.987 313.003,248.911 313.500,248.914 314.600 M230.893 317.600 C 230.893 318.370,230.975 318.685,231.076 318.300 C 231.176 317.915,231.176 317.285,231.076 316.900 C 230.975 316.515,230.893 316.830,230.893 317.600 M219.293 318.400 C 219.293 319.170,219.375 319.485,219.476 319.100 C 219.576 318.715,219.576 318.085,219.476 317.700 C 219.375 317.315,219.293 317.630,219.293 318.400 " stroke="none" fill="#fb9444" fill-rule="evenodd"></path><path id="path3" d="M99.200 77.496 C 99.200 98.563,99.080 149.145,98.934 189.900 L 98.667 264.000 214.140 264.000 L 329.612 264.000 329.506 158.500 L 329.400 53.000 328.542 50.501 C 326.767 45.328,323.718 42.091,318.910 40.273 L 316.600 39.400 207.900 39.296 L 99.200 39.193 99.200 77.496 M260.400 100.600 L 260.400 112.000 236.400 112.000 L 212.400 112.000 212.400 126.600 L 212.400 141.200 232.600 141.200 L 252.800 141.200 252.800 152.400 L 252.800 163.600 232.500 163.600 L 212.200 163.600 212.200 188.700 L 212.200 213.800 196.500 213.905 L 180.800 214.009 180.800 151.605 L 180.800 89.200 220.600 89.200 L 260.400 89.200 260.400 100.600 " stroke="none" fill="#fb6c04" fill-rule="evenodd"></path><path id="path4" d="M200.870 89.500 C 211.578 89.559,229.218 89.559,240.070 89.500 C 250.921 89.441,242.160 89.392,220.600 89.392 C 199.040 89.392,190.161 89.441,200.870 89.500 M260.176 100.600 C 260.176 106.760,260.232 109.224,260.299 106.076 C 260.367 102.927,260.367 97.887,260.299 94.876 C 260.231 91.864,260.176 94.440,260.176 100.600 M212.192 126.900 L 212.200 141.400 232.000 141.406 L 251.800 141.411 232.105 141.302 L 212.410 141.193 212.297 126.796 L 212.185 112.400 212.192 126.900 M222.100 163.500 C 227.765 163.562,237.035 163.562,242.700 163.500 C 248.365 163.437,243.730 163.386,232.400 163.386 C 221.070 163.386,216.435 163.437,222.100 163.500 M211.107 285.490 C 211.826 285.579,212.906 285.577,213.507 285.486 C 214.108 285.395,213.520 285.322,212.200 285.324 C 210.880 285.326,210.388 285.401,211.107 285.490 M253.091 285.489 C 253.801 285.577,255.061 285.579,255.891 285.492 C 256.721 285.405,256.140 285.333,254.600 285.331 C 253.060 285.329,252.381 285.400,253.091 285.489 M222.117 298.697 C 223.611 298.774,225.951 298.774,227.317 298.696 C 228.682 298.618,227.460 298.555,224.600 298.555 C 221.740 298.556,220.622 298.620,222.117 298.697 M248.928 302.800 C 248.928 304.230,249.001 304.815,249.089 304.100 C 249.178 303.385,249.178 302.215,249.089 301.500 C 249.001 300.785,248.928 301.370,248.928 302.800 M206.114 302.600 C 206.117 303.700,206.195 304.103,206.287 303.495 C 206.379 302.886,206.377 301.986,206.282 301.495 C 206.187 301.003,206.111 301.500,206.114 302.600 M194.560 309.800 C 194.561 313.100,194.622 314.397,194.698 312.682 C 194.773 310.967,194.772 308.267,194.697 306.682 C 194.621 305.097,194.559 306.500,194.560 309.800 M261.709 306.400 C 261.709 307.390,261.787 307.795,261.882 307.300 C 261.978 306.805,261.978 305.995,261.882 305.500 C 261.787 305.005,261.709 305.410,261.709 306.400 M261.724 313.400 C 261.726 314.720,261.801 315.212,261.890 314.493 C 261.979 313.774,261.977 312.694,261.886 312.093 C 261.795 311.492,261.722 312.080,261.724 313.400 M166.900 312.676 C 167.285 312.776,167.915 312.776,168.300 312.676 C 168.685 312.575,168.370 312.493,167.600 312.493 C 166.830 312.493,166.515 312.575,166.900 312.676 M206.124 316.600 C 206.126 317.920,206.201 318.412,206.290 317.693 C 206.379 316.974,206.377 315.894,206.286 315.293 C 206.195 314.692,206.122 315.280,206.124 316.600 M248.924 318.600 C 248.926 319.920,249.001 320.412,249.090 319.693 C 249.179 318.974,249.177 317.894,249.086 317.293 C 248.995 316.692,248.922 317.280,248.924 318.600 M189.314 319.400 C 189.317 320.500,189.395 320.903,189.487 320.295 C 189.579 319.686,189.577 318.786,189.482 318.295 C 189.387 317.803,189.311 318.300,189.314 319.400 M170.307 334.690 C 171.026 334.779,172.106 334.777,172.707 334.686 C 173.308 334.595,172.720 334.522,171.400 334.524 C 170.080 334.526,169.588 334.601,170.307 334.690 " stroke="none" fill="#fcb47c" fill-rule="evenodd"></path></g></svg>