<svg width="88" height="119" viewBox="0 0 88 119" fill="none" xmlns="http://www.w3.org/2000/svg">
<g clip-path="url(#clip0_333_22)">
<path d="M28.3779 91.9922C28.3779 91.9922 23.8411 94.6319 31.6067 95.5251C41.0148 96.5988 45.8229 96.4451 56.1907 94.4816C56.1907 94.4816 58.9166 96.1916 62.723 97.6729C39.4817 107.639 10.1227 97.0955 28.3779 91.9922ZM25.5378 78.9868C25.5378 78.9868 20.4493 82.7556 28.2208 83.5597C38.2707 84.597 46.2072 84.682 59.9407 82.0361C59.9407 82.0361 61.8402 83.9628 64.8271 85.0166C36.7265 93.2379 5.42776 85.6649 25.5378 78.9868Z" fill="#5382A1"/>
<path d="M49.4801 56.9258C55.207 63.5224 47.9755 69.4587 47.9755 69.4587C47.9755 69.4587 62.5165 61.9482 55.8384 52.5431C49.6014 43.7729 44.8181 39.4146 70.7118 24.3896C70.7118 24.3896 30.0675 34.5463 49.4801 56.9258Z" fill="#E76F00"/>
<path d="M80.2188 101.611C80.2188 101.611 83.5762 104.379 76.5211 106.52C63.1059 110.587 20.6851 111.815 8.90068 106.682C4.66465 104.839 12.6087 102.28 15.1074 101.743C17.7134 101.177 19.2029 101.283 19.2029 101.283C14.4918 97.9624 -11.2475 107.803 6.12868 110.621C53.5157 118.31 92.5103 107.159 80.2188 101.611ZM30.5593 65.5119C30.5593 65.5119 8.98181 70.6399 22.9185 72.5016C28.8028 73.2898 40.5332 73.1117 51.46 72.1955C60.39 71.4422 69.3567 69.8395 69.3567 69.8395C69.3567 69.8395 66.2079 71.1888 63.9299 72.7451C42.0179 78.5111 -0.312162 75.8287 11.8741 69.9307C22.1801 64.9464 30.5593 65.5119 30.5593 65.5119ZM69.2676 87.1595C91.5426 75.5787 81.2436 64.4498 74.0551 65.9493C72.293 66.316 71.5075 66.6338 71.5075 66.6338C71.5075 66.6338 72.1617 65.6088 73.4109 65.1652C87.6318 60.1627 98.5689 79.9188 68.8201 87.7432C68.8201 87.7435 69.1649 87.4354 69.2676 87.1595Z" fill="#5382A1"/>
<path d="M55.8384 0.127785C55.8384 0.127785 68.1746 12.4749 44.1382 31.4602C24.8638 46.6901 39.743 55.3737 44.1303 65.2951C32.8794 55.1388 24.6225 46.198 30.162 37.8769C38.2921 25.6615 60.8156 19.7397 55.8384 0.127785Z" fill="#E76F00"/>
<path d="M32.7483 118.541C54.1293 119.91 86.9619 117.781 87.7394 107.659C87.7394 107.659 86.2448 111.496 70.0693 114.543C51.8203 117.979 29.3129 117.578 15.9634 115.376C15.9637 115.376 18.6958 117.639 32.7483 118.541Z" fill="#5382A1"/>
</g>
<defs>
<clipPath id="clip0_333_22">
<rect width="88" height="119" fill="white"/>
</clipPath>
</defs>
</svg>
