<svg width="128" height="132" viewBox="0 0 128 132" fill="none" xmlns="http://www.w3.org/2000/svg">
<path d="M127.928 29.862C127.976 30.0378 128 30.2191 128 30.4014V58.7347C128 59.475 127.605 60.1587 126.964 60.5268L103.225 74.2191V101.356C103.225 101.719 103.13 102.076 102.949 102.391C102.768 102.705 102.508 102.967 102.194 103.149L52.64 131.725C52.5265 131.789 52.403 131.83 52.279 131.875C52.2325 131.89 52.189 131.918 52.14 131.931C51.7936 132.023 51.4294 132.023 51.083 131.931C51.026 131.916 50.9745 131.885 50.9205 131.864C50.807 131.823 50.6885 131.787 50.5805 131.725L1.0365 103.148C0.721671 102.967 0.46007 102.706 0.27809 102.392C0.0961102 102.077 0.000187681 101.72 0 101.356L0 16.3565C0 16.1702 0.026 15.9894 0.072 15.814C0.0875 15.7544 0.1235 15.7004 0.1445 15.6407C0.183 15.5326 0.2195 15.4214 0.276 15.3207C0.3145 15.2536 0.371 15.1995 0.4175 15.1374C0.477 15.0547 0.531 14.9696 0.6005 14.897C0.66 14.8379 0.7375 14.7938 0.8045 14.7422C0.8795 14.6801 0.946 14.613 1.031 14.5639H1.0335L25.8065 0.276031C26.1202 0.0951828 26.4758 0 26.8377 0C27.1997 0 27.5553 0.0951828 27.869 0.276031L52.642 14.5639H52.647C52.7295 14.616 52.7995 14.6801 52.874 14.7397C52.941 14.7913 53.016 14.8379 53.075 14.895C53.1475 14.9696 53.199 15.0552 53.2605 15.1374C53.3045 15.1995 53.364 15.2536 53.4 15.3207C53.459 15.4239 53.4925 15.5326 53.534 15.6412C53.5545 15.7004 53.5905 15.7544 53.606 15.8166C53.6535 15.9924 53.678 16.1742 53.6785 16.3565V69.4458L74.3215 57.5386V30.3989C74.3215 30.2186 74.3475 30.0348 74.394 29.862C74.412 29.7999 74.4455 29.7458 74.466 29.6867C74.5075 29.578 74.5435 29.4663 74.6 29.3661C74.6385 29.299 74.695 29.2449 74.7395 29.1828C74.801 29.1002 74.8525 29.015 74.9245 28.9424C74.9845 28.8833 75.059 28.8392 75.126 28.7876C75.2035 28.7255 75.2705 28.6584 75.353 28.6093H75.3555L100.131 14.3215C100.445 14.1404 100.8 14.045 101.162 14.045C101.524 14.045 101.88 14.1404 102.193 14.3215L126.966 28.6093C127.054 28.6609 127.121 28.7255 127.199 28.7846C127.263 28.8367 127.338 28.8833 127.397 28.9399C127.469 29.015 127.521 29.1002 127.582 29.1828C127.629 29.2449 127.686 29.299 127.722 29.3661C127.781 29.4663 127.814 29.578 127.855 29.6867C127.879 29.7458 127.912 29.7999 127.928 29.862ZM123.87 57.5391V33.9781L115.201 38.9773L103.225 45.8853V69.4463L123.873 57.5391H123.87ZM99.0975 100.161V76.5832L87.3165 83.3234L53.676 102.557V126.355L99.0975 100.16V100.161ZM4.1295 19.9327V100.161L49.546 126.353V102.559L25.82 89.108L25.8125 89.103L25.8025 89.098C25.7225 89.0514 25.655 88.9843 25.5805 88.9277C25.5155 88.8756 25.441 88.8345 25.3845 88.7774L25.3795 88.7699C25.3125 88.7053 25.266 88.6252 25.2095 88.553C25.1575 88.4829 25.096 88.4238 25.0545 88.3517L25.052 88.3437C25.0055 88.2665 24.977 88.1734 24.9435 88.0857C24.91 88.0081 24.8665 87.9355 24.8455 87.8533V87.8508C24.82 87.7526 24.815 87.649 24.8045 87.5483C24.7945 87.4712 24.7735 87.3935 24.7735 87.3159V31.8404L12.799 24.9294L4.1295 19.9357V19.9327ZM26.8405 4.4543L6.1995 16.3565L26.8355 28.2582L47.4735 16.3535L26.8355 4.4543H26.8405ZM37.5745 78.7325L49.5485 71.8275V19.9327L40.88 24.9324L28.9025 31.8399V83.7342L37.5745 78.7325ZM101.162 18.4997L80.524 30.4014L101.162 42.3036L121.798 30.3989L101.162 18.4997H101.162ZM99.097 45.8853L87.1205 38.9773L78.4515 33.9781V57.5391L90.4255 64.4446L99.0975 69.4463V45.8853H99.097ZM51.6085 98.9807L81.88 81.6686L97.012 73.0175L76.389 61.1233L52.6445 74.8171L31.0035 87.2979L51.6085 98.9807Z" fill="#FF2D20"/>
</svg>
