<svg width="117" height="101" viewBox="0 0 117 101" fill="none" xmlns="http://www.w3.org/2000/svg">
<g clip-path="url(#clip0_299_28)">
<path d="M98.6141 68.7468C99.1084 68.4642 99.5194 68.0572 99.8058 67.5666C100.092 67.076 100.244 66.519 100.246 65.9516L100.304 47.2288C100.306 46.6613 100.458 46.1042 100.744 45.6135C101.03 45.1228 101.441 44.7157 101.936 44.4331L112.131 38.6033C112.625 38.3208 113.185 38.1725 113.755 38.1734C114.325 38.1743 114.885 38.3244 115.378 38.6085C115.871 38.8926 116.281 39.3008 116.565 39.7922C116.85 40.2836 117 40.8409 117 41.4081V75.4469C117 76.0161 116.849 76.5751 116.563 77.0677C116.276 77.5602 115.864 77.9688 115.368 78.2522L76.8909 100.252C76.3994 100.533 75.8426 100.682 75.2758 100.682C74.7089 100.683 74.1518 100.536 73.6597 100.256L43.4637 83.0629C42.9662 82.7801 42.5526 82.3715 42.2649 81.8783C41.9772 81.3852 41.8255 80.8252 41.8252 80.2549V63.0913C41.8252 63.0722 41.8481 63.0594 41.8677 63.0685C41.8837 63.0785 41.9066 63.0685 41.9066 63.0458V63.0267C41.9066 63.0139 41.913 63.0007 41.9262 62.9944L66.796 48.772C66.8189 48.7588 66.8088 48.7233 66.7828 48.7233C66.7759 48.7233 66.7692 48.7206 66.7644 48.7157C66.7595 48.7109 66.7567 48.7043 66.7567 48.6974L66.8056 31.8704C66.808 31.3014 66.6595 30.7418 66.3752 30.2482C66.0909 29.7545 65.6808 29.3442 65.1863 29.0587C64.6918 28.7732 64.1304 28.6226 63.5588 28.622C62.9872 28.6215 62.4255 28.7711 61.9305 29.0556L43.4472 39.6584C42.9539 39.9411 42.3947 40.09 41.8254 40.09C41.2562 40.09 40.697 39.9411 40.2037 39.6584L21.6619 29.0306C21.1679 28.7474 20.6078 28.5985 20.0378 28.5989C19.4678 28.5992 18.9079 28.7489 18.4143 29.0327C17.9207 29.3165 17.5107 29.7246 17.2256 30.216C16.9405 30.7074 16.7903 31.2648 16.79 31.8322V62.2441C16.7904 62.811 16.6412 63.368 16.3573 63.8593C16.0735 64.3507 15.6649 64.7592 15.1725 65.044C14.6802 65.3287 14.1213 65.4797 13.5519 65.4817C12.9825 65.4838 12.4225 65.3369 11.9281 65.0558L1.638 59.1987C1.13973 58.9153 0.725695 58.5057 0.437991 58.0115C0.150287 57.5173 -0.000829548 56.956 3.42503e-06 56.3848L0.0914097 3.22784C0.0928675 2.66134 0.243733 2.10515 0.528914 1.61491C0.814095 1.12467 1.22359 0.717569 1.71644 0.43433C2.2093 0.151092 2.76822 0.00164537 3.33731 0.000941167C3.9064 0.000236968 4.46569 0.1483 4.95925 0.430318L40.2069 20.5821C40.6994 20.8637 41.2575 21.0119 41.8254 21.0119C42.3934 21.0119 42.9515 20.8637 43.444 20.5821L78.6811 0.429408C79.1755 0.146725 79.7358 -0.00153317 80.3059 -0.000482738C80.8761 0.000567698 81.4359 0.150889 81.9292 0.435392C82.4225 0.719895 82.8319 1.12857 83.1164 1.62039C83.4008 2.11221 83.5504 2.66987 83.5499 3.23739V56.4066C83.5502 56.9754 83.3999 57.5342 83.1141 58.0267C82.8283 58.5192 82.4171 58.928 81.9219 59.2119L63.4679 69.7914C62.9722 70.0758 62.5607 70.4854 62.275 70.9789C61.9893 71.4723 61.8396 72.0321 61.8408 72.6017C61.8421 73.1712 61.9945 73.7303 62.2824 74.2225C62.5704 74.7147 62.9837 75.1225 63.4807 75.4046L73.6602 81.1734C74.1521 81.4521 74.7086 81.5981 75.2746 81.5969C75.8407 81.5957 76.3965 81.4474 76.8873 81.1666L98.6145 68.7464L98.6141 68.7468ZM100.749 21.0516C100.75 21.6238 100.903 22.1856 101.192 22.6798C101.482 23.174 101.898 23.5829 102.398 23.8647C102.899 24.1466 103.465 24.2913 104.04 24.2842C104.615 24.277 105.177 24.1183 105.67 23.8241L115.421 18.0007C115.902 17.7136 116.3 17.3073 116.577 16.8215C116.854 16.3356 117 15.7867 117 15.2282V3.36068C116.999 2.78876 116.846 2.22732 116.556 1.73357C116.266 1.23982 115.85 0.8314 115.349 0.549935C114.849 0.268471 114.283 0.124019 113.709 0.131298C113.134 0.138577 112.572 0.297327 112.079 0.591372L102.329 6.4148C101.848 6.70187 101.449 7.10816 101.172 7.5941C100.896 8.08004 100.75 8.62908 100.749 9.18775V21.0548V21.0516Z" fill="#007FFF"/>
</g>
<defs>
<clipPath id="clip0_299_28">
<rect width="117" height="101" fill="white"/>
</clipPath>
</defs>
</svg>
