<svg width="87" height="87" viewBox="0 0 87 87" fill="none" xmlns="http://www.w3.org/2000/svg">
<path d="M45.1856 81.5623L43.1438 80.8853C43.1438 80.8853 43.4157 70.5541 39.6774 69.8282C37.2305 66.9789 40.039 -51.8114 48.9837 69.4231C47.2866 70.2839 45.988 71.7676 45.3596 73.5637C45.0227 76.2166 44.9644 78.8974 45.1856 81.5623Z" fill="url(#paint0_linear_333_28)"/>
<path d="M46.2894 71.5817C51.7258 67.4894 55.8891 61.9382 58.2954 55.5734C60.7018 49.2086 61.2524 42.2916 59.8832 35.6263C55.8866 17.9952 46.4227 12.1988 45.4031 9.98574C44.5235 8.60769 43.7727 7.15154 43.1602 5.63574L43.9133 54.7608C43.9133 54.7608 42.3527 69.7738 46.2894 71.5817Z" fill="url(#paint1_linear_333_28)"/>
<path d="M42.1053 72.2345C42.1053 72.2345 25.4639 60.9 26.4263 40.8492C26.5161 34.8045 27.9021 28.8494 30.4906 23.3862C33.0791 17.923 36.81 13.0789 41.4311 9.18122C41.9711 8.72242 42.4002 8.14721 42.686 7.4988C42.9718 6.8504 43.107 6.14565 43.0814 5.4375C44.1172 7.66687 43.9486 38.7232 44.0574 42.3554C44.4788 56.4848 43.2717 69.5674 42.1053 72.2345Z" fill="url(#paint2_linear_333_28)"/>
<defs>
<linearGradient id="paint0_linear_333_28" x1="31.4604" y1="44.1858" x2="54.9277" y2="52.1493" gradientUnits="userSpaceOnUse">
<stop offset="0.231" stop-color="#999875"/>
<stop offset="0.563" stop-color="#9B9977"/>
<stop offset="0.683" stop-color="#A09F7E"/>
<stop offset="0.768" stop-color="#A9A889"/>
<stop offset="0.837" stop-color="#B7B69A"/>
<stop offset="0.896" stop-color="#C9C7B0"/>
<stop offset="0.948" stop-color="#DEDDCB"/>
<stop offset="0.994" stop-color="#F8F6EB"/>
<stop offset="1" stop-color="#FBF9EF"/>
</linearGradient>
<linearGradient id="paint1_linear_333_28" x1="40.0661" y1="5.28471" x2="50.4409" y2="70.0697" gradientUnits="userSpaceOnUse">
<stop stop-color="#48A547"/>
<stop offset="1" stop-color="#3F9143"/>
</linearGradient>
<linearGradient id="paint2_linear_333_28" x1="24.9948" y1="42.834" x2="52.8365" y2="33.5098" gradientUnits="userSpaceOnUse">
<stop stop-color="#41A247"/>
<stop offset="0.352" stop-color="#4BA74B"/>
<stop offset="0.956" stop-color="#67B554"/>
<stop offset="1" stop-color="#69B655"/>
</linearGradient>
</defs>
</svg>
