<svg width="130" height="89" viewBox="0 0 130 89" fill="none" xmlns="http://www.w3.org/2000/svg">
<g clip-path="url(#clip0_333_32)">
<path d="M38.6725 58.7293L42.6232 71.6042C43.5109 74.5274 43.8811 76.568 43.7328 77.7311C45.8936 71.9189 47.4033 65.5848 48.2622 58.7293H53.0128C50.9702 69.8902 48.276 78.0007 44.9318 83.0602C42.3262 86.9591 39.4718 88.9084 36.3634 88.9084C35.5347 88.9084 34.513 88.657 33.3006 88.1577V85.4673C33.8929 85.5545 34.5879 85.6011 35.3872 85.6011C36.8372 85.6011 38.006 85.1975 38.8951 84.3919C39.9598 83.4103 40.4927 82.3071 40.4927 81.0843C40.4927 80.2494 40.0771 78.536 39.2496 75.944L33.7449 58.7293H38.6725ZM8.43553 50.8159L15.6719 72.9909H15.7165L22.9973 50.8159H28.9458C30.2484 61.8132 31.0177 71.8753 31.2538 80.9958H26.2387C26.0622 72.4699 25.5734 64.4528 24.7741 56.9429H24.7305L17.0935 80.9958H13.2742L5.68344 56.9429H5.63875C5.07559 64.1552 4.72113 72.1723 4.57336 80.9958H0C0.295547 70.2648 1.03518 60.2058 2.21889 50.8159H8.43553Z" fill="#00758F"/>
<path d="M89.5014 50.3679C97.2854 50.3679 101.178 55.3626 101.178 65.3472C101.178 70.7729 100.007 74.8712 97.6683 77.6399C97.2468 78.1459 96.7809 78.583 96.2903 78.9879L101.799 81.7235L101.793 81.7232L99.8377 85.1154L92.664 80.9115C91.475 81.2652 90.1666 81.4419 88.7409 81.4419C84.9189 81.4419 82.064 80.3232 80.1764 78.0885C78.1046 75.6164 77.0691 71.7246 77.0691 66.4198C77.0691 61.0247 78.2376 56.9419 80.5771 54.1697C82.7079 51.6338 85.6831 50.3679 89.5014 50.3679ZM65.6647 50.4118C68.4467 50.4118 70.9764 51.1595 73.2549 52.6495L72.0976 55.2397C70.1479 54.4074 68.2256 53.9894 66.3299 53.9894C64.7917 53.9894 63.6065 54.3612 62.7803 55.1094C61.9495 55.851 61.4356 56.8053 61.4356 57.9686C61.4356 59.7563 62.7036 61.3065 65.0449 62.6163C65.8119 63.0374 66.5763 63.4633 67.3379 63.8941L67.5126 63.9928L67.6002 64.0423L67.7751 64.141L67.8625 64.1905L68.0372 64.2894C69.8094 65.2929 71.4771 66.2507 71.4771 66.2507C73.8181 67.9198 74.9851 69.6993 74.9851 72.6302C74.9851 75.1898 74.0512 77.2908 72.1896 78.9349C70.3266 80.5716 67.8239 81.3922 64.6897 81.3922C61.7583 81.3922 58.9174 80.4476 56.1655 78.5743L57.4528 75.9818C59.821 77.174 61.964 77.7695 63.8883 77.7695C65.6931 77.7695 67.1058 77.3648 68.1278 76.5655C69.1478 75.7605 69.7589 74.6376 69.7589 73.2139C69.7589 71.4219 68.5178 69.89 66.241 68.605C65.5284 68.2096 64.8179 67.8103 64.1095 67.4072L63.9351 67.308C63.6146 67.1262 63.2919 66.9421 62.9758 66.7618L62.8044 66.6639C61.267 65.7856 59.9378 65.0182 59.9378 65.0182C57.6618 63.3461 56.5205 61.5521 56.5205 58.596C56.5205 56.1511 57.3716 54.175 59.0712 52.6717C60.7749 51.1651 62.973 50.4118 65.6647 50.4118ZM110.326 50.8157V77.2832H119.78V80.9957H105.53V50.8157H110.326ZM125.034 77.2946V77.922H123.995V80.9923H123.2V77.922H122.12V77.2946H125.035H125.034ZM126.954 77.2946L127.952 79.8152L128.869 77.2946H129.995V80.9923H129.246V78.1783L128.203 80.9923H127.663L126.617 78.1783H126.577V80.9923H125.869V77.2946H126.954H126.954ZM89.0119 54.0794C84.4248 54.0794 82.13 57.8817 82.13 65.4811C82.13 69.8342 82.7381 72.9908 83.952 74.9582C85.0763 76.779 86.8371 77.6876 89.2348 77.6876C93.8219 77.6876 96.1164 73.8558 96.1164 66.1956C96.1164 61.9035 95.5083 58.774 94.2959 56.8055C93.1703 54.9888 91.4103 54.0794 89.0121 54.0794H89.0119Z" fill="#F29111"/>
<path d="M76.9891 1.87004C78.5107 -1.8853 83.8313 0.958616 85.8961 2.27041C86.4021 2.59861 86.9826 3.292 87.5627 3.54829C88.4679 3.58399 89.3723 3.65514 90.279 3.69314C91.9797 4.09453 93.5727 4.42248 94.9128 5.18905C101.141 8.87273 105.195 12.6265 108.926 18.827C109.723 20.1403 110.122 21.5615 110.773 22.9827C111.677 25.1011 112.692 27.3248 113.741 29.3279C114.211 30.2776 114.575 31.3336 115.227 32.1356C115.482 32.5024 116.205 32.6105 116.637 32.8295C117.833 33.451 119.281 33.9228 120.405 34.6521C122.505 35.967 124.535 37.5338 126.38 39.1378C127.068 39.757 127.537 40.6335 128.192 41.2884V41.6189C127.61 41.7981 127.031 41.9818 126.451 42.1289C125.183 42.4558 124.061 42.3819 122.831 42.7091C122.072 42.9304 121.128 43.2224 120.332 43.2966L120.405 43.3711C120.874 44.7163 123.41 45.8103 124.57 46.6149C125.978 47.6359 127.284 48.8743 128.334 50.2965C128.697 50.6594 129.06 50.9896 129.421 51.3515C129.674 51.7182 129.745 52.1925 130 52.5195V52.6301C129.717 52.5299 129.514 52.3386 129.321 52.1387L129.206 52.0181C129.091 51.8982 128.975 51.7804 128.843 51.6833C128.044 51.135 127.25 50.4791 126.451 49.9693C125.076 49.0936 123.483 48.5853 122.072 47.7063C121.274 47.196 120.513 46.6149 119.753 46.0309C119.064 45.5191 118.304 44.5362 117.871 43.8069C117.616 43.404 117.581 42.9304 117.29 42.6389C117.342 42.1521 117.786 42.0075 118.234 41.8887L118.337 41.8614C118.492 41.8211 118.643 41.7808 118.775 41.7275C120.657 40.9247 122.902 40.6335 125.8 40.7064C125.691 39.9756 123.88 39.0649 123.302 38.6273C122.141 37.7873 120.913 36.9108 119.682 36.1463C119.029 35.7459 117.905 35.4536 117.183 35.1265C116.205 34.7251 114.032 34.3239 113.49 33.5594C112.569 32.3542 111.908 30.9167 111.266 29.4646L111.092 29.0683C111.033 28.9363 110.975 28.8042 110.917 28.6723C110.158 26.9237 109.215 25.1006 108.455 23.3101C108.057 22.4367 107.875 21.6701 107.439 20.8324C104.797 15.6918 100.886 11.3879 96.1443 8.36117C94.586 7.37631 92.8486 6.46489 90.9305 5.84546C89.8436 5.51572 88.539 5.69806 87.3809 5.44508H86.6187C85.9682 5.26096 85.4251 4.56834 84.9175 4.20316C83.7965 3.43863 82.6738 2.92529 81.3331 2.37981C80.8634 2.16101 79.522 1.65149 79.0538 2.05263C78.7639 2.12582 78.6168 2.23573 78.5455 2.52797C78.2571 2.96405 78.5107 3.62097 78.6902 4.02312C79.2341 5.18854 79.9938 5.88116 80.6834 6.86602C81.2968 7.73945 82.0588 8.72431 82.4937 9.67399C83.4322 11.7154 83.8692 13.9771 84.7388 16.0182C85.0612 16.7858 85.5713 17.6592 86.0408 18.3516C86.4387 18.9012 87.1621 19.2985 87.3809 19.9942C87.8171 20.7235 86.7279 23.1301 86.4758 23.8943C85.5325 26.8849 85.7153 31.0419 86.8015 33.6341L86.8594 33.7708L86.9173 33.9093C87.3139 34.8587 87.7384 35.881 88.7929 36.1465C88.8655 36.0741 88.7929 36.1121 88.9369 36.0741C89.192 34.0676 89.2639 32.1354 89.9525 30.5655C90.3504 29.584 91.1448 28.8901 91.6895 28.0888C92.0526 28.3071 92.0526 28.9653 92.2689 29.4009C92.7401 30.5306 93.2462 31.7692 93.8271 32.9022C95.0194 35.2356 96.3611 37.4978 97.8812 39.539C98.3903 40.2681 99.1127 41.0706 99.7642 41.7272C100.054 41.9815 100.379 42.1284 100.598 42.4556H100.669V42.5657C99.5824 42.1636 98.8938 41.0349 98.0275 40.3759C96.3964 39.1373 94.4431 37.2772 93.3188 35.4924C92.8486 34.4678 92.3402 33.4857 91.8334 32.4661V32.3924C91.6169 32.6837 91.6895 32.9729 91.581 33.4135C91.1108 35.2356 91.4729 37.3142 89.8436 37.9696C87.9967 38.7372 86.619 36.731 86.0408 35.8193C84.1934 32.7933 83.6874 27.6885 84.9902 23.5677C85.2796 22.6555 85.319 21.5615 85.8242 20.8332C85.7151 20.1747 85.2098 19.9947 84.9175 19.5912C84.4107 18.9017 83.9768 18.0984 83.58 17.3326C82.8177 15.8367 82.2754 14.0493 81.6967 12.445C81.4423 11.7898 81.3694 11.1322 81.1158 10.512C80.6831 9.56535 79.8856 8.61568 79.2704 7.77821C78.4373 6.57454 76.011 4.24167 76.9891 1.87004ZM88.8648 9.01426C88.9615 9.11168 89.0783 9.19685 89.1992 9.28075L89.3449 9.38123C89.5391 9.51639 89.7273 9.65868 89.8426 9.8525C90.0254 10.109 90.0594 10.3623 90.2783 10.6193C90.2783 11.4958 90.0254 12.0785 89.5148 12.4417C89.5148 12.4417 89.48 12.4799 89.4442 12.5156C89.1547 11.9314 88.9011 11.3502 88.6096 10.7665C88.2506 10.2569 87.743 9.85275 87.4505 9.27055H87.3802V9.19736C87.8171 9.08898 88.2506 9.01426 88.8648 9.01426Z" fill="#00758F"/>
</g>
<defs>
<clipPath id="clip0_333_32">
<rect width="130" height="89" fill="white"/>
</clipPath>
</defs>
</svg>
