<svg width="245" height="150" viewBox="0 0 245 150" fill="none" xmlns="http://www.w3.org/2000/svg">
<path d="M121.117 149.567C120.288 149.567 119.514 149.347 118.794 148.96L111.439 144.599C110.333 143.991 110.886 143.77 111.218 143.66C112.711 143.163 112.988 143.052 114.536 142.17C114.702 142.059 114.924 142.114 115.089 142.225L120.73 145.592C120.952 145.703 121.228 145.703 121.394 145.592L143.46 132.839C143.681 132.728 143.792 132.507 143.792 132.231V106.779C143.792 106.503 143.681 106.282 143.46 106.172L121.394 93.4732C121.173 93.3623 120.896 93.3623 120.73 93.4732L98.6637 106.172C98.4426 106.282 98.3316 106.558 98.3316 106.779V132.231C98.3316 132.452 98.4426 132.728 98.6637 132.839L104.692 136.317C107.955 137.973 110.001 136.041 110.001 134.108V108.987C110.001 108.656 110.278 108.325 110.665 108.325H113.485C113.817 108.325 114.149 108.601 114.149 108.987V134.108C114.149 138.47 111.771 141.01 107.623 141.01C106.351 141.01 105.356 141.01 102.535 139.629L96.7281 136.317C95.2901 135.489 94.4054 133.943 94.4054 132.286V106.834C94.4054 105.178 95.2901 103.632 96.7281 102.804L118.794 90.0499C120.177 89.277 122.058 89.277 123.44 90.0499L145.507 102.804C146.944 103.632 147.83 105.178 147.83 106.834V132.286C147.83 133.943 146.944 135.489 145.507 136.317L123.44 149.071C122.721 149.402 121.892 149.567 121.118 149.567H121.117ZM127.92 132.066C118.242 132.066 116.251 127.649 116.251 123.894C116.251 123.563 116.527 123.232 116.914 123.232H119.79C120.122 123.232 120.398 123.453 120.398 123.784C120.841 126.71 122.113 128.146 127.975 128.146C132.621 128.146 134.612 127.097 134.612 124.612C134.612 123.177 134.059 122.128 126.814 121.41C120.785 120.802 117.025 119.478 117.025 114.674C117.025 110.202 120.786 107.552 127.09 107.552C134.169 107.552 137.654 109.981 138.096 115.281C138.096 115.447 138.041 115.612 137.93 115.778C137.819 115.889 137.654 115.999 137.488 115.999H134.612C134.335 115.999 134.059 115.778 134.004 115.502C133.34 112.466 131.625 111.472 127.09 111.472C122.002 111.472 121.394 113.239 121.394 114.563C121.394 116.165 122.113 116.662 128.97 117.545C135.773 118.429 138.981 119.698 138.981 124.446C138.926 129.305 134.944 132.066 127.92 132.066Z" fill="#539E43"/>
<path d="M52.6501 50.0218C52.6501 49.0281 52.097 48.089 51.2122 47.5922L27.763 34.1208C27.3754 33.8996 26.9333 33.7893 26.4911 33.7339H26.2695C25.8274 33.7339 25.3848 33.8996 24.9977 34.1208L1.54847 47.5922C0.66322 48.089 0.110535 49.0277 0.110535 50.0218L0.166042 86.2401C0.166042 86.7369 0.442625 87.2337 0.884773 87.4549C1.3274 87.731 1.88009 87.731 2.26768 87.4549L16.2045 79.5044C17.0892 79.0076 17.6424 78.0689 17.6424 77.0753V60.1253C17.6424 59.1316 18.1951 58.193 19.0803 57.6961L24.9977 54.2729C25.4403 53.9968 25.9379 53.8859 26.4356 53.8859C26.9332 53.8859 27.4309 53.9968 27.8185 54.2729L33.7358 57.6961C34.6211 58.193 35.1738 59.1312 35.1738 60.1253V77.0753C35.1738 78.0689 35.7269 79.0076 36.6117 79.5044L50.5485 87.4549C50.7638 87.5902 51.013 87.662 51.2674 87.662C51.5219 87.662 51.7711 87.5902 51.9864 87.4549C52.429 87.2337 52.7056 86.7369 52.7056 86.2401L52.6501 50.0218ZM165.361 0.165884C164.919 -0.0552946 164.366 -0.0552946 163.978 0.165884C163.536 0.441998 163.259 0.8834 163.259 1.38021V37.268C163.259 37.599 163.094 37.9301 162.762 38.1512C162.43 38.3165 162.098 38.3165 161.767 38.1512L155.904 34.7834C155.474 34.5391 154.988 34.4106 154.494 34.4106C153.999 34.4106 153.513 34.5391 153.083 34.7834L129.634 48.3102C128.749 48.807 128.196 49.7457 128.196 50.7393V77.7374C128.196 78.731 128.749 79.6702 129.634 80.167L153.083 93.6937C153.513 93.938 153.999 94.0665 154.494 94.0665C154.988 94.0665 155.474 93.938 155.904 93.6937L179.353 80.167C180.238 79.6702 180.791 78.7315 180.791 77.7374V10.4352C180.791 9.38611 180.238 8.44789 179.353 7.9506L165.362 0.165884H165.361ZM163.204 68.8487C163.204 69.1248 163.094 69.3455 162.872 69.4558L154.853 74.0934C154.741 74.148 154.618 74.1763 154.494 74.1763C154.369 74.1763 154.246 74.148 154.134 74.0934L146.115 69.4558C145.894 69.3455 145.783 69.0694 145.783 68.8487V59.573C145.783 59.2969 145.894 59.0762 146.115 58.9659L154.134 54.3278C154.246 54.2733 154.369 54.2449 154.494 54.2449C154.618 54.2449 154.741 54.2733 154.853 54.3278L162.872 58.9659C163.094 59.0758 163.204 59.3523 163.204 59.573V68.8487ZM243.396 59.3524C244.281 58.8555 244.779 57.9168 244.779 56.9227V50.3528C244.779 49.3592 244.226 48.4205 243.396 47.9237L220.113 34.4524C219.683 34.2081 219.197 34.0796 218.702 34.0796C218.208 34.0796 217.722 34.2081 217.292 34.4524L193.843 47.9786C192.958 48.4754 192.405 49.4141 192.405 50.4078V77.4063C192.405 78.4 192.958 79.3386 193.843 79.8355L217.126 93.0861C218.011 93.5829 219.062 93.5829 219.892 93.0861L233.994 85.2469C234.437 85.0258 234.713 84.5289 234.713 84.0321C234.713 83.5353 234.437 83.0385 233.994 82.8173L210.434 69.2906C209.992 69.0144 209.715 68.573 209.715 68.0762V59.6289C209.715 59.1321 209.992 58.6353 210.434 58.4141L217.79 54.218C218.005 54.0827 218.254 54.0109 218.509 54.0109C218.763 54.0109 219.012 54.0827 219.228 54.218L226.583 58.4141C227.026 58.6902 227.302 59.1316 227.302 59.6289V66.2543C227.302 66.7511 227.579 67.2479 228.021 67.4686C228.237 67.6039 228.486 67.6757 228.74 67.6757C228.995 67.6757 229.244 67.6039 229.459 67.4686L243.396 59.3524V59.3524Z" fill="#333333"/>
<path d="M218.343 58.0824C218.425 58.0283 218.521 57.9995 218.619 57.9995C218.718 57.9995 218.814 58.0283 218.896 58.0824L223.376 60.6773C223.541 60.7881 223.652 60.9534 223.652 61.1741V66.3644C223.652 66.5851 223.542 66.7508 223.376 66.8612L218.896 69.4561C218.814 69.5101 218.718 69.5389 218.619 69.5389C218.521 69.5389 218.425 69.5101 218.343 69.4561L213.863 66.8612C213.697 66.7508 213.587 66.5851 213.587 66.3644V61.1745C213.587 60.9534 213.697 60.7876 213.863 60.6777L218.343 58.0824V58.0824Z" fill="#539E43"/>
<path d="M91.8611 34.5626C91.4314 34.3184 90.9454 34.1899 90.4509 34.1899C89.9565 34.1899 89.4705 34.3184 89.0407 34.5626L65.7576 47.978C64.8724 48.4748 64.3747 49.4135 64.3747 50.4072V77.2954C64.3747 78.289 64.9279 79.2277 65.7576 79.7245L89.0407 93.1409C89.4705 93.3851 89.9565 93.5135 90.4509 93.5135C90.9454 93.5135 91.4314 93.3851 91.8611 93.1409L115.145 79.7245C116.03 79.2277 116.528 78.289 116.528 77.2954V50.4076C116.528 49.414 115.974 48.4753 115.145 47.9785L91.8611 34.5626Z" fill="url(#paint0_linear_277_64)"/>
<defs>
<linearGradient id="paint0_linear_277_64" x1="99.9367" y1="44.5639" x2="74.4776" y2="84.6355" gradientUnits="userSpaceOnUse">
<stop stop-color="#41873F"/>
<stop offset="0.3288" stop-color="#418B3D"/>
<stop offset="0.6352" stop-color="#419637"/>
<stop offset="0.9319" stop-color="#3FA92D"/>
<stop offset="1" stop-color="#3FAE2A"/>
</linearGradient>
</defs>
</svg>
