<svg width="101" height="53" viewBox="0 0 101 53" fill="none" xmlns="http://www.w3.org/2000/svg">
<g clip-path="url(#clip0_333_36)">
<path d="M50.5 52.843C78.3904 52.843 101 41.0137 101 26.4215C101 11.8293 78.3904 0 50.5 0C22.6096 0 0 11.8293 0 26.4215C0 41.0137 22.6096 52.843 50.5 52.843Z" fill="url(#paint0_radial_333_36)"/>
<path d="M50.5 50.8799C77.3009 50.8799 99.0273 39.9295 99.0273 26.4214C99.0273 12.9133 77.3009 1.96289 50.5 1.96289C23.6991 1.96289 1.97266 12.9133 1.97266 26.4214C1.97266 39.9295 23.6991 50.8799 50.5 50.8799Z" fill="#6181B6"/>
<path d="M60.3238 34.3519L62.7305 22.0245C63.2828 19.2371 62.8094 17.1563 61.3891 15.8608C60.0082 14.6045 57.641 13.9763 54.1691 13.9763H49.9871L51.1707 7.85189C51.2101 7.61633 51.1707 7.38078 51.0129 7.18448C50.8551 6.98819 50.6578 6.90967 50.4211 6.90967H44.6609C44.2664 6.90967 43.9508 7.18448 43.8719 7.53782L41.3074 20.6111C41.0707 19.1193 40.5184 17.863 39.5715 16.8423C37.875 14.9186 35.2316 13.9371 31.6414 13.9371H20.5551C20.1605 13.9371 19.8449 14.2119 19.766 14.5652L14.5976 41.1045C14.5582 41.34 14.5977 41.5756 14.7555 41.7719C14.9133 41.9682 15.1105 42.0467 15.3473 42.0467H21.1469C21.5414 42.0467 21.857 41.7719 21.9359 41.4186L23.1984 35.0193H27.4988C29.7476 35.0193 31.6809 34.7837 33.1406 34.3126C34.6793 33.8023 36.0601 32.9778 37.2832 31.8393C38.2695 30.9363 39.098 29.9156 39.7293 28.8163L38.7035 34.1163C38.6641 34.3519 38.7035 34.5874 38.8613 34.7837C39.0191 34.98 39.2164 35.0586 39.4531 35.0586H45.2133C45.6078 35.0586 45.9234 34.7837 46.0023 34.4304L48.843 19.9045H52.7883C54.4848 19.9045 54.9582 20.2186 55.116 20.3756C55.2344 20.4934 55.4711 20.9645 55.1949 22.4171L52.9066 34.1556C52.8672 34.3911 52.9066 34.6267 53.0644 34.823C53.2223 35.0193 53.4195 35.0978 53.6562 35.0978H59.5742C59.9293 34.98 60.2449 34.7052 60.3238 34.3519ZM33.6535 24.1445C33.2984 25.9897 32.6277 27.3245 31.6414 28.0704C30.6551 28.8163 29.0375 29.2089 26.907 29.2089H24.3426L26.1969 19.7082H29.5109C31.957 19.7082 32.9434 20.2186 33.3379 20.6504C33.8508 21.2786 33.9691 22.4956 33.6535 24.1445ZM84.9426 16.8423C83.2461 14.9186 80.6027 13.9371 77.0125 13.9371H65.8473C65.4527 13.9371 65.1371 14.2119 65.0582 14.5652L59.8898 41.0652C59.8504 41.3008 59.8898 41.5363 60.0476 41.7326C60.2055 41.9289 60.4027 42.0074 60.6394 42.0074H66.4391C66.8336 42.0074 67.1492 41.7326 67.2281 41.3793L68.4906 34.98H72.791C75.0398 34.98 76.973 34.7445 78.4328 34.2734C79.9715 33.763 81.3523 32.9386 82.5754 31.8C83.6012 30.8578 84.4691 29.7978 85.1004 28.6593C85.7316 27.5208 86.2051 26.2645 86.4812 24.8904C87.1519 21.4749 86.6391 18.8052 84.9426 16.8423ZM78.9062 24.1445C78.5512 25.9897 77.8805 27.3245 76.8941 28.0704C75.9078 28.8163 74.2902 29.2089 72.1598 29.2089H69.5953L71.4496 19.7082H74.7637C77.2098 19.7082 78.1961 20.2186 78.5906 20.6504C79.143 21.2786 79.2613 22.4956 78.9062 24.1445Z" fill="white"/>
<path d="M29.5109 18.923C31.7203 18.923 33.1801 19.3156 33.9297 20.14C34.6793 20.9645 34.8371 22.3385 34.4426 24.3015C34.048 26.343 33.259 27.8348 32.1148 28.6985C30.9707 29.5622 29.2348 29.9941 26.907 29.9941H23.3957L25.5656 18.923H29.5109ZM15.3867 41.2222H21.1863L22.5672 34.1948H27.5383C29.7477 34.1948 31.523 33.9593 32.9434 33.4882C34.3637 33.017 35.6262 32.2711 36.8098 31.1719C37.7961 30.2689 38.5852 29.2874 39.177 28.2274C39.7687 27.1674 40.2027 25.9896 40.4395 24.6941C41.0707 21.5533 40.5973 19.1193 39.0586 17.3526C37.5199 15.5859 35.0738 14.7222 31.7203 14.7222H20.5551L15.3867 41.2222ZM44.7004 7.69482H50.4605L49.0797 14.7222H54.2086C57.4437 14.7222 59.6531 15.2719 60.8762 16.4104C62.0992 17.5489 62.4543 19.3548 61.9809 21.8674L59.5742 34.1948H53.7352L56.0234 22.4563C56.2996 21.1215 56.1812 20.2185 55.7473 19.7474C55.3133 19.2763 54.327 19.0015 52.8672 19.0015H48.2512L45.2922 34.1948H39.532L44.7004 7.69482ZM74.7637 18.923C76.973 18.923 78.4328 19.3156 79.1824 20.14C79.932 20.9645 80.0898 22.3385 79.6953 24.3015C79.3008 26.343 78.5117 27.8348 77.3676 28.6985C76.2234 29.5622 74.4875 29.9941 72.1598 29.9941H68.6484L70.8184 18.923H74.7637ZM60.6394 41.2222H66.4391L67.8199 34.1948H72.791C75.0004 34.1948 76.7758 33.9593 78.1961 33.4882C79.6164 33.017 80.8789 32.2711 82.0625 31.1719C83.0488 30.2689 83.8379 29.2874 84.4297 28.2274C85.0215 27.1674 85.4555 25.9896 85.6922 24.6941C86.3234 21.5533 85.85 19.1193 84.3113 17.3526C82.7726 15.5859 80.3266 14.7222 76.973 14.7222H65.8078L60.6394 41.2222Z" fill="#000004"/>
</g>
<defs>
<radialGradient id="paint0_radial_333_36" cx="0" cy="0" r="1" gradientUnits="userSpaceOnUse" gradientTransform="translate(30.3203 9.29169) scale(66.3189 65.993)">
<stop stop-color="white"/>
<stop offset="0.5" stop-color="#4C6B97"/>
<stop offset="1" stop-color="#231F20"/>
</radialGradient>
<clipPath id="clip0_333_36">
<rect width="101" height="53" fill="white"/>
</clipPath>
</defs>
</svg>
