<svg width="77" height="77" viewBox="0 0 77 77" fill="none" xmlns="http://www.w3.org/2000/svg">
<g clip-path="url(#clip0_333_41)">
<path d="M38.174 0.0219727C18.6737 0.0219727 19.8913 8.5116 19.8913 8.5116L19.9129 17.3071H38.5217V19.9478H12.5218C12.5218 19.9478 0.0436096 18.527 0.0436096 38.2798C0.0436096 58.0332 10.9349 57.3326 10.9349 57.3326H17.4348V48.1663C17.4348 48.1663 17.0844 37.2323 28.1522 37.2323H46.6088C46.6088 37.2323 56.9782 37.4005 56.9782 27.1713V10.2578C56.9782 10.2578 58.5531 0.0219727 38.174 0.0219727ZM27.9131 5.93678C28.3528 5.93638 28.7883 6.02304 29.1947 6.1918C29.601 6.36055 29.9702 6.6081 30.2812 6.92026C30.5921 7.23242 30.8387 7.60307 31.0068 8.011C31.1749 8.41894 31.2612 8.85614 31.2608 9.2976C31.2612 9.73906 31.1749 10.1763 31.0068 10.5842C30.8387 10.9921 30.5921 11.3628 30.2812 11.675C29.9702 11.9871 29.601 12.2347 29.1947 12.4034C28.7883 12.5722 28.3528 12.6588 27.9131 12.6584C27.4734 12.6588 27.0379 12.5722 26.6315 12.4034C26.2252 12.2347 25.856 11.9871 25.545 11.675C25.2341 11.3628 24.9875 10.9921 24.8194 10.5842C24.6513 10.1763 24.565 9.73906 24.5654 9.2976C24.565 8.85614 24.6513 8.41894 24.8194 8.011C24.9875 7.60307 25.2341 7.23242 25.545 6.92026C25.856 6.6081 26.2252 6.36055 26.6315 6.1918C27.0379 6.02304 27.4734 5.93638 27.9131 5.93678Z" fill="url(#paint0_linear_333_41)"/>
<path d="M38.7277 76.7361C58.2279 76.7361 57.0104 68.2465 57.0104 68.2465L56.9887 59.4512H38.3797V56.8106H64.3795C64.3795 56.8106 76.8577 58.2313 76.8577 38.478C76.8577 18.7249 65.9664 19.4254 65.9664 19.4254H59.4665V28.5915C59.4665 28.5915 59.817 39.5255 48.7491 39.5255H30.2926C30.2926 39.5255 19.9231 39.3573 19.9231 49.5868V66.5005C19.9231 66.5005 18.3485 76.7361 38.7274 76.7361H38.7277ZM48.9885 70.8219C48.5488 70.8223 48.1133 70.7356 47.707 70.5669C47.3006 70.3981 46.9314 70.1506 46.6205 69.8384C46.3095 69.5262 46.063 69.1556 45.8949 68.7477C45.7268 68.3397 45.6404 67.9025 45.6408 67.4611C45.6404 67.0196 45.7267 66.5823 45.8948 66.1744C46.0629 65.7664 46.3094 65.3957 46.6204 65.0835C46.9313 64.7713 47.3005 64.5237 47.7069 64.355C48.1132 64.1862 48.5488 64.0995 48.9885 64.0999C49.4283 64.0995 49.8638 64.1862 50.2701 64.3549C50.6764 64.5237 51.0457 64.7712 51.3566 65.0834C51.6675 65.3956 51.9141 65.7662 52.0822 66.1741C52.2503 66.5821 52.3366 67.0193 52.3362 67.4607C52.3366 67.9022 52.2503 68.3394 52.0822 68.7473C51.9141 69.1553 51.6675 69.5259 51.3566 69.8381C51.0457 70.1503 50.6764 70.3978 50.2701 70.5666C49.8638 70.7353 49.4283 70.8223 48.9885 70.8219Z" fill="url(#paint1_linear_333_41)"/>
</g>
<defs>
<linearGradient id="paint0_linear_333_41" x1="7.42542" y1="6.92197" x2="45.6397" y2="44.6072" gradientUnits="userSpaceOnUse">
<stop stop-color="#387EB8"/>
<stop offset="1" stop-color="#366994"/>
</linearGradient>
<linearGradient id="paint1_linear_333_41" x1="30.7908" y1="31.217" x2="71.8211" y2="69.8527" gradientUnits="userSpaceOnUse">
<stop stop-color="#FFE052"/>
<stop offset="1" stop-color="#FFC331"/>
</linearGradient>
<clipPath id="clip0_333_41">
<rect width="77" height="77" fill="white"/>
</clipPath>
</defs>
</svg>
