<svg width="94" height="84" viewBox="0 0 94 84" fill="none" xmlns="http://www.w3.org/2000/svg">
<g clip-path="url(#clip0_277_58)">
<path d="M77.2867 27.1982C76.2864 26.8539 75.2775 26.5348 74.2611 26.2415C74.4318 25.5415 74.589 24.8499 74.7285 24.1706C77.019 13.0144 75.5217 4.02678 70.4071 1.06762C65.5033 -1.76922 57.4836 1.18883 49.3841 8.26141C48.5859 8.95969 47.8054 9.67809 47.0433 10.4159C46.5332 9.9253 46.014 9.44418 45.4861 8.97283C36.9974 1.41062 28.489 -1.77659 23.3799 1.19104C18.4805 4.03673 17.0298 12.4857 19.0919 23.0587C19.2971 24.1058 19.5287 25.1476 19.7866 26.1829C18.5823 26.5263 17.4201 26.8917 16.3079 27.2808C6.35565 30.7624 0 36.2183 0 41.8776C0 47.7226 6.82308 53.5853 17.1888 57.1402C18.0291 57.4272 18.8765 57.6932 19.7301 57.9378C19.4529 59.0529 19.2068 60.1756 18.992 61.3045C17.0261 71.6939 18.5613 79.9433 23.4475 82.7709C28.4941 85.691 36.9644 82.6898 45.2118 75.4559C45.8806 74.8678 46.5346 74.263 47.1733 73.6421C47.9986 74.4411 48.8459 75.2168 49.7142 75.9684C57.7035 82.8659 65.5936 85.6512 70.475 82.8158C75.5169 79.8873 77.1556 71.0253 75.0282 60.2434C74.8606 59.3987 74.6726 58.5582 74.4645 57.7227C75.0594 57.5458 75.6432 57.3638 76.2123 57.1745C86.9886 53.5923 94 47.8007 94 41.8776C94 36.1977 87.4391 30.7049 77.2867 27.1982V27.1982ZM74.9496 53.3503C74.4355 53.5208 73.9082 53.6855 73.3707 53.8458C72.181 50.0669 70.5756 46.0489 68.6108 41.8971C70.4857 37.8445 72.0293 33.8777 73.1856 30.1235C74.1473 30.4028 75.0803 30.6971 75.9799 31.0077C84.6786 34.0126 89.9844 38.4546 89.9844 41.8776C89.9844 45.5235 84.2541 50.2566 74.9496 53.3503V53.3503ZM71.089 61.0259C72.0297 65.7933 72.1637 70.1038 71.5406 73.4738C70.981 76.5018 69.8552 78.5204 68.4628 79.3291C65.5007 81.0496 59.1657 78.8133 52.3334 72.9141C51.5257 72.2154 50.7375 71.4942 49.9698 70.7515C52.6187 67.845 55.2658 64.4663 57.8493 60.7135C62.3936 60.309 66.6868 59.6473 70.58 58.7443C70.7676 59.5007 70.9373 60.2615 71.089 61.0259V61.0259ZM32.0467 79.0318C29.1525 80.0571 26.8473 80.0866 25.4538 79.2805C22.4888 77.5647 21.2561 70.9409 22.9375 62.056C23.1373 61.0061 23.3662 59.962 23.6237 58.9248C27.4741 59.7796 31.736 60.3941 36.291 60.7647C38.8921 64.4368 41.6156 67.8119 44.3603 70.7674C43.777 71.3337 43.1799 71.8855 42.5695 72.4223C38.9222 75.6209 35.2676 77.8904 32.0467 79.0318V79.0318ZM18.4879 53.3278C13.9043 51.7557 10.119 49.7128 7.52441 47.4835C5.19277 45.4804 4.01593 43.4913 4.01593 41.8776C4.01593 38.4432 9.11873 34.0627 17.6298 31.0855C18.6627 30.7244 19.7437 30.3836 20.8654 30.0638C22.0419 33.9028 23.5848 37.9167 25.4468 41.9756C23.5606 46.0946 21.9956 50.1726 20.8078 54.0569C20.0286 53.833 19.2551 53.5898 18.4879 53.3278V53.3278ZM23.0329 22.2846C21.2664 13.2263 22.4396 6.39315 25.3921 4.67815C28.5367 2.85151 35.4905 5.45588 42.8199 11.9858C43.2979 12.4126 43.7681 12.848 44.2303 13.2918C41.4992 16.2344 38.8007 19.5845 36.2227 23.2348C31.8017 23.6459 27.5699 24.3061 23.6792 25.1907C23.4395 24.2277 23.224 23.2589 23.0329 22.285V22.2846ZM63.5804 32.3307C62.6614 30.738 61.7083 29.1653 60.7218 27.6138C63.721 27.9944 66.5946 28.4995 69.2931 29.117C68.483 31.7225 67.4733 34.4462 66.2847 37.2388C65.4159 35.5849 64.5143 33.9485 63.5804 32.3307V32.3307ZM47.0452 16.1714C48.8973 18.1848 50.7523 20.4326 52.5768 22.8715C48.8756 22.6961 45.1682 22.6954 41.4669 22.8693C43.2932 20.4528 45.1641 18.208 47.0452 16.1714ZM30.4039 32.3584C29.4816 33.9631 28.5968 35.5893 27.7502 37.2355C26.5811 34.4528 25.5805 31.7166 24.7635 29.0743C27.4454 28.4723 30.3055 27.98 33.2855 27.6065C32.2881 29.1675 31.3272 30.7517 30.4039 32.358V32.3584ZM33.3711 56.4354C30.2922 56.0906 27.3893 55.6238 24.708 55.038C25.5379 52.3485 26.5605 49.554 27.755 46.7117C28.6049 48.3591 29.4934 49.9863 30.4196 51.5918C31.3721 53.2423 32.3584 54.8589 33.3711 56.4354ZM47.1561 67.8675C45.2526 65.8073 43.3542 63.5279 41.5003 61.0764C43.3002 61.1472 45.1351 61.1833 47 61.1833C48.916 61.1833 50.8099 61.1401 52.6741 61.0569C50.8437 63.5526 48.9957 65.8353 47.1561 67.8675ZM66.3225 46.5665C67.579 49.4402 68.638 52.2199 69.4788 54.8634C66.7536 55.4875 63.8109 55.99 60.7104 56.3632C61.7039 54.7829 62.666 53.1829 63.5961 51.5642C64.5418 49.9188 65.4508 48.2525 66.3225 46.5665V46.5665ZM60.1178 49.5511C58.6939 52.0329 57.19 54.4676 55.6083 56.8514C52.7434 57.0549 49.8721 57.1561 47 57.1546C44.0746 57.1546 41.2293 57.0632 38.4893 56.8849C36.8664 54.5067 35.3338 52.0677 33.8947 49.5732H33.8951C32.4628 47.0919 31.1249 44.5569 29.8843 41.9738C31.1217 39.39 32.4555 36.8538 33.883 34.3707L33.8826 34.371C35.3095 31.8872 36.8299 29.4587 38.4405 27.0907C41.2359 26.8785 44.1025 26.7679 46.9996 26.7679H47C49.9103 26.7679 52.7806 26.8796 55.5753 27.0933C57.1697 29.4577 58.6803 31.8779 60.1046 34.3493C61.5367 36.827 62.8882 39.3508 64.1568 41.9167C62.9012 44.5088 61.554 47.0552 60.1178 49.5511V49.5511ZM68.4015 4.55804C71.5491 6.37951 72.7733 13.7247 70.7956 23.3571C70.6693 23.9716 70.5275 24.5976 70.3733 25.2324C66.4731 24.329 62.2383 23.6574 57.8045 23.2399C55.2217 19.5495 52.5453 16.1943 49.8586 13.2896C50.5627 12.6086 51.2836 11.9452 52.0206 11.3001C58.9604 5.24073 65.4464 2.8482 68.4015 4.55804V4.55804ZM47 33.4555C51.6357 33.4555 55.3939 37.2263 55.3939 41.8776C55.3939 46.5289 51.6357 50.2997 47 50.2997C42.3643 50.2997 38.6061 46.5289 38.6061 41.8776C38.6061 37.2263 42.3643 33.4555 47 33.4555V33.4555Z" fill="#00D8FF"/>
</g>
<defs>
<clipPath id="clip0_277_58">
<rect width="94" height="84" fill="white"/>
</clipPath>
</defs>
</svg>
