<svg width="97" height="92" viewBox="0 0 97 92" fill="none" xmlns="http://www.w3.org/2000/svg">
<path d="M67.2108 64.2521C70.7903 63.8818 73.5059 60.799 73.3824 57.099C73.2592 53.3995 70.173 50.4396 66.47 50.4396H66.2233C62.3964 50.563 59.4341 53.7693 59.5576 57.5923C59.6811 59.4422 60.4215 61.0454 61.5325 62.1553C57.3357 70.4182 50.917 76.461 41.289 81.5173C34.7468 84.9704 27.958 86.2037 21.1691 85.3406C15.6143 84.6005 11.2941 82.1343 8.57805 78.0641C4.62833 72.0214 4.25814 65.485 7.591 58.949C9.93643 54.2626 13.6391 50.8095 15.9845 49.0829C15.4908 47.4797 14.7501 44.7667 14.3799 42.7937C-3.51853 55.7427 -1.66681 73.2547 3.76443 81.5173C7.83767 87.6838 16.1081 91.5068 25.2423 91.5068C27.7109 91.5068 30.1795 91.2599 32.6484 90.6437C48.4485 87.5604 60.4219 78.1876 67.2108 64.2521ZM88.9357 48.9599C79.5544 37.9839 65.7296 31.9411 49.9296 31.9411H47.9547C46.8438 29.7213 44.4984 28.2412 41.9063 28.2412H41.6592C37.833 28.3646 34.8707 31.5709 34.9939 35.3942C35.1174 39.0938 38.2032 42.0536 41.9063 42.0536H42.1529C44.8685 41.9302 47.214 40.2037 48.2014 37.8605H50.4233C59.8047 37.8605 68.6919 40.5735 76.7156 45.8766C82.8872 49.9464 87.331 55.2494 89.7996 61.662C91.898 66.8417 91.7745 71.898 89.5526 76.2146C86.0966 82.7506 80.2951 86.3271 72.642 86.3271C67.7045 86.3271 63.014 84.847 60.545 83.7371C59.1874 84.9704 56.7185 86.9434 54.9903 88.177C60.2984 90.6433 65.7296 92 70.9138 92C82.7637 92 91.5278 85.4636 94.8607 78.9276C98.4402 71.7746 98.1932 59.4422 88.9357 48.9599ZM26.2298 66.3481C26.3533 70.048 29.4391 73.0075 33.1422 73.0075H33.3892C37.2158 72.8845 40.1781 69.6778 40.0545 65.8548C39.9314 62.1549 36.8452 59.1954 33.1422 59.1954H32.8955C32.6484 59.1954 32.2779 59.1954 32.0316 59.3185C26.9705 50.9325 24.8722 41.8068 25.6129 31.9407C26.1063 24.5413 28.5752 18.1283 32.8955 12.8252C36.475 8.26219 43.3874 6.04238 48.0783 5.91935C61.1623 5.67254 66.7167 21.9512 67.0872 28.4876C68.6919 28.8575 71.4075 29.7209 73.2592 30.3376C71.7777 10.3593 59.4341 0 47.5845 0C36.475 0 26.2298 8.01613 22.1562 19.8552C16.4782 35.6407 20.1813 50.8095 27.0937 62.7719C26.4768 63.635 26.1063 64.9917 26.2298 66.3485V66.3481Z" fill="#764ABC"/>
</svg>
