<svg width="52" height="52" viewBox="0 0 52 52" fill="none" xmlns="http://www.w3.org/2000/svg">
<path d="M24.4122 6.60609C24.4122 6.30784 24.5007 6.01628 24.6664 5.76829C24.8321 5.5203 25.0676 5.32702 25.3431 5.21288C25.6187 5.09874 25.9219 5.06888 26.2144 5.12707C26.5069 5.18525 26.7756 5.32888 26.9865 5.53977C27.1974 5.75067 27.341 6.01937 27.3992 6.3119C27.4574 6.60442 27.4276 6.90763 27.3134 7.18318C27.1993 7.45873 27.006 7.69425 26.758 7.85995C26.51 8.02565 26.2185 8.11409 25.9202 8.11409C25.7221 8.11433 25.5259 8.07549 25.3428 7.99979C25.1598 7.92409 24.9934 7.81302 24.8534 7.67294C24.7133 7.53286 24.6022 7.36653 24.5265 7.18346C24.4508 7.00039 24.412 6.80419 24.4122 6.60609ZM6.42496 20.2615C6.42496 19.9632 6.51341 19.6717 6.67911 19.4237C6.84481 19.1757 7.08033 18.9824 7.35588 18.8683C7.63143 18.7541 7.93464 18.7243 8.22716 18.7824C8.51968 18.8406 8.78838 18.9843 8.99928 19.1951C9.21018 19.406 9.3538 19.6747 9.41199 19.9673C9.47017 20.2598 9.44031 20.563 9.32617 20.8386C9.21204 21.1141 9.01875 21.3496 8.77076 21.5153C8.52277 21.681 8.23122 21.7695 7.93296 21.7695C7.73493 21.7695 7.53884 21.7305 7.35588 21.6547C7.17292 21.5789 7.00668 21.4678 6.86665 21.3278C6.72662 21.1878 6.61554 21.0215 6.53975 20.8386C6.46397 20.6556 6.42496 20.4595 6.42496 20.2615ZM42.414 20.3322C42.414 20.0339 42.5024 19.7423 42.6681 19.4944C42.8338 19.2464 43.0693 19.0531 43.3449 18.9389C43.6204 18.8248 43.9236 18.7949 44.2162 18.8531C44.5087 18.9113 44.7774 19.0549 44.9883 19.2658C45.1992 19.4767 45.3428 19.7454 45.401 20.038C45.4592 20.3305 45.4293 20.6337 45.3152 20.9092C45.201 21.1848 45.0078 21.4203 44.7598 21.586C44.5118 21.7517 44.2202 21.8402 43.922 21.8402C43.7239 21.8404 43.5277 21.8015 43.3446 21.7258C43.1615 21.6501 42.9952 21.5391 42.8551 21.399C42.715 21.2589 42.604 21.0926 42.5283 20.9095C42.4526 20.7265 42.4137 20.5303 42.414 20.3322ZM10.784 22.3984C11.1165 22.2501 11.3767 21.9761 11.5078 21.6365C11.6389 21.2969 11.6302 20.9192 11.4837 20.5859L10.8148 19.0725H13.4466V30.9353H8.13596C7.48048 28.6332 7.27615 26.2262 7.53421 23.8466L10.784 22.3984ZM21.7932 22.6902V19.1939H28.0608C28.3852 19.1939 30.3463 19.5673 30.3463 21.0354C30.3463 22.2534 28.842 22.6902 27.604 22.6902H21.7932ZM13.2363 41.5167C13.2363 41.2184 13.3248 40.9268 13.4905 40.6789C13.6562 40.4309 13.8917 40.2376 14.1673 40.1234C14.4428 40.0093 14.746 39.9794 15.0385 40.0376C15.3311 40.0958 15.5998 40.2394 15.8107 40.4503C16.0216 40.6612 16.1652 40.9299 16.2234 41.2225C16.2815 41.515 16.2517 41.8182 16.1375 42.0937C16.0234 42.3693 15.8301 42.6048 15.5821 42.7705C15.3341 42.9362 15.0426 43.0247 14.7443 43.0247C14.5462 43.0249 14.35 42.986 14.167 42.9103C13.9839 42.8346 13.8176 42.7236 13.6775 42.5835C13.5374 42.4434 13.4263 42.2771 13.3506 42.094C13.2749 41.911 13.2361 41.7148 13.2363 41.5167ZM35.5863 41.5873C35.5863 41.2891 35.6747 40.9975 35.8404 40.7495C36.0061 40.5016 36.2416 40.3083 36.5172 40.1941C36.7927 40.08 37.0959 40.0501 37.3885 40.1083C37.681 40.1665 37.9497 40.3101 38.1606 40.521C38.3715 40.7319 38.5151 41.0006 38.5733 41.2931C38.6315 41.5857 38.6016 41.8889 38.4875 42.1644C38.3733 42.44 38.1801 42.6755 37.9321 42.8412C37.6841 43.0069 37.3925 43.0953 37.0943 43.0953C36.6943 43.0953 36.3108 42.9365 36.028 42.6537C35.7452 42.3709 35.5863 41.9873 35.5863 41.5873ZM36.0521 38.1672C35.8755 38.1294 35.6931 38.1268 35.5155 38.1596C35.3379 38.1924 35.1685 38.2598 35.017 38.3582C34.8655 38.4565 34.7348 38.5837 34.6325 38.7326C34.5302 38.8814 34.4583 39.049 34.4208 39.2257L33.6632 42.7582C31.2283 43.8608 28.5841 44.425 25.9112 44.4122C23.2383 44.3993 20.5996 43.8098 18.1754 42.6839L17.4196 39.1513C17.3431 38.7951 17.1283 38.4837 16.8225 38.2856C16.5167 38.0875 16.1447 38.0188 15.7883 38.0947L12.669 38.7653C12.0893 38.1684 11.5504 37.5332 11.0559 36.864H26.2338C26.406 36.864 26.5202 36.8332 26.5202 36.6827V31.3068C26.5202 31.151 26.406 31.1256 26.2338 31.1256H21.7932V27.7163H26.5945C27.3102 27.7234 28 27.9848 28.5408 28.4536C29.0817 28.9223 29.4383 29.5681 29.547 30.2755C29.7373 31.0241 30.156 33.4601 30.4424 34.2395C30.727 35.1149 31.8924 36.8622 33.1285 36.8622H40.964C40.4385 37.5666 39.8637 38.2329 39.2439 38.8559L36.0521 38.1672ZM44.4802 23.9916C44.5868 25.0632 44.6002 26.1421 44.5201 27.216H42.6151C42.4248 27.216 42.3469 27.3411 42.3469 27.5278V28.4032C42.3469 30.4622 41.1851 30.9117 40.1719 31.0259C39.2022 31.1347 38.1274 30.6199 37.9969 30.0272C37.927 29.0007 37.6164 28.005 37.0902 27.1209C36.5641 26.2367 35.8371 25.4888 34.9682 24.9377C36.8351 23.7523 38.7745 22.0033 38.7745 19.6615C38.736 18.6666 38.4492 17.6971 37.9401 16.8414C37.4311 15.9857 36.716 15.2709 35.86 14.7623C34.6659 13.989 33.2924 13.537 31.8725 13.4501H12.1652C14.8893 10.4052 18.5416 8.34366 22.5562 7.58484L24.8798 10.0208C25.0043 10.1516 25.1533 10.2565 25.3183 10.3296C25.4833 10.4027 25.6611 10.4426 25.8416 10.447C26.022 10.4514 26.2015 10.4201 26.3699 10.3551C26.5383 10.2901 26.6922 10.1925 26.8228 10.068L29.422 7.58122C32.0721 8.07841 34.5821 9.1466 36.7778 10.7116C38.9735 12.2766 40.8021 14.3008 42.1366 16.6437L40.3568 20.662C40.2107 20.9953 40.2023 21.3729 40.3333 21.7124C40.4644 22.0519 40.7243 22.3258 41.0564 22.4745L44.4802 23.9916ZM48.9172 24.0568L48.8574 23.4352L50.6898 21.726C50.7593 21.6537 50.8138 21.5684 50.8502 21.4751C50.8866 21.3817 50.9042 21.2821 50.902 21.1819C50.8998 21.0817 50.8779 20.9829 50.8374 20.8912C50.797 20.7995 50.7388 20.7167 50.6663 20.6475C50.6021 20.5864 50.5279 20.5368 50.447 20.5007L48.1125 19.6253L47.9312 19.0199L49.3921 16.9899C49.5 16.8189 49.5358 16.6121 49.4916 16.4147C49.4475 16.2174 49.327 16.0456 49.1565 15.9368C49.0823 15.8903 49.0008 15.8566 48.9154 15.8372L46.445 15.4348L46.1477 14.8802L47.1863 12.6018C47.223 12.509 47.2411 12.4099 47.2395 12.3101C47.2378 12.2102 47.2165 12.1117 47.1768 12.0202C47.1371 11.9286 47.0797 11.8457 47.0079 11.7764C46.9361 11.707 46.8514 11.6524 46.7585 11.6158C46.6741 11.5829 46.5845 11.5651 46.4939 11.5633L43.9872 11.6503L43.5812 11.1718L44.1576 8.73034C44.1748 8.63156 44.1723 8.53036 44.1504 8.43252C44.1284 8.33468 44.0874 8.24213 44.0297 8.16016C43.9719 8.07818 43.8986 8.00839 43.8139 7.95477C43.7292 7.90115 43.6347 7.86475 43.5359 7.84765C43.4495 7.83315 43.3613 7.83315 43.2749 7.84765L40.8317 8.41859L40.3495 8.02165L40.4383 5.51859C40.436 5.41838 40.4139 5.31961 40.3734 5.22793C40.3328 5.13624 40.2746 5.05345 40.2021 4.98427C40.1295 4.91509 40.0441 4.86088 39.9506 4.82474C39.8571 4.78861 39.7574 4.77125 39.6571 4.77365C39.5697 4.77597 39.4833 4.79313 39.4016 4.8244L37.1233 5.86297L36.5686 5.56572L36.1663 3.09528C36.1217 2.89916 36.0014 2.72859 35.8317 2.62066C35.662 2.51272 35.4566 2.47615 35.26 2.5189C35.1746 2.53835 35.0931 2.57206 35.019 2.61859L32.9871 4.07947L32.3836 3.89822L31.5081 1.55465C31.4264 1.36963 31.2745 1.22464 31.0859 1.15157C30.8972 1.0785 30.6873 1.08332 30.5022 1.16497C30.4223 1.20107 30.3488 1.25005 30.2847 1.30997L28.5701 3.14422L27.9484 3.0844L26.6289 0.951092C26.5584 0.851234 26.465 0.769758 26.3565 0.713521C26.248 0.657283 26.1276 0.62793 26.0054 0.62793C25.8832 0.62793 25.7628 0.657283 25.6543 0.713521C25.5458 0.769758 25.4524 0.851234 25.3819 0.951092L24.0624 3.0844L23.4407 3.14422L21.7315 1.30997C21.5849 1.17062 21.3889 1.09521 21.1867 1.10031C20.9845 1.10541 20.7925 1.1906 20.6531 1.33715C20.5932 1.40123 20.5442 1.4747 20.5081 1.55465L19.6254 3.88734L19.0218 4.06859L16.9918 2.61859C16.8208 2.51068 16.614 2.47489 16.4167 2.51905C16.2193 2.5632 16.0475 2.68371 15.9388 2.85422C15.8922 2.9284 15.8585 3.0099 15.8391 3.09528L15.4367 5.56572L14.8821 5.86297L12.602 4.8244C12.4137 4.75152 12.2043 4.75618 12.0195 4.83737C11.8347 4.91856 11.6896 5.06966 11.616 5.25759C11.5847 5.34118 11.5675 5.42938 11.5652 5.51859L11.6522 8.02528L11.1701 8.41859L8.72865 7.84584C8.62987 7.82866 8.52867 7.83111 8.43083 7.85305C8.33299 7.875 8.24044 7.91602 8.15847 7.97375C8.07649 8.03149 8.0067 8.10482 7.95307 8.18954C7.89945 8.27427 7.86306 8.36873 7.84596 8.46753C7.83146 8.55392 7.83146 8.64213 7.84596 8.72853L8.41871 11.1718L8.02359 11.6521L5.51871 11.5651C5.39637 11.5683 5.27657 11.6008 5.16939 11.6599C5.06221 11.719 4.97077 11.8029 4.90276 11.9047C4.83475 12.0064 4.79214 12.123 4.77853 12.2446C4.76492 12.3663 4.78069 12.4894 4.82453 12.6037L5.86309 14.882L5.56584 15.4366L3.0954 15.839C2.89904 15.8831 2.72817 16.0033 2.62015 16.1731C2.51214 16.343 2.47578 16.5486 2.51903 16.7452C2.53848 16.8306 2.57218 16.9121 2.61871 16.9863L4.07959 19.0163L3.89834 19.6217L1.55478 20.4971C1.36975 20.5789 1.22477 20.7308 1.15169 20.9194C1.07862 21.108 1.08344 21.3179 1.16509 21.503C1.20069 21.5842 1.25039 21.6585 1.3119 21.7223L3.14434 23.4315L3.08453 24.0532L0.951214 25.3727C0.851356 25.4432 0.76988 25.5366 0.713643 25.6451C0.657405 25.7536 0.628052 25.874 0.628052 25.9962C0.628052 26.1184 0.657405 26.2388 0.713643 26.3474C0.76988 26.4559 0.851356 26.5493 0.951214 26.6197L3.08453 27.9392L3.14434 28.5609L1.3119 30.2701C1.17256 30.4167 1.09715 30.6127 1.10225 30.8149C1.10735 31.0172 1.19253 31.2091 1.33909 31.3485C1.40249 31.4084 1.47537 31.4574 1.55478 31.4935L3.89834 32.369L4.07959 32.9743L2.61871 35.0116C2.56513 35.0963 2.52876 35.1908 2.51169 35.2896C2.49462 35.3883 2.49718 35.4895 2.51923 35.5873C2.54128 35.6851 2.58239 35.7776 2.6402 35.8595C2.69801 35.9414 2.77139 36.0111 2.85615 36.0647C2.93033 36.1112 3.01183 36.1449 3.09721 36.1643L5.56765 36.5667L5.8649 37.1232L4.82634 39.4015C4.75349 39.5902 4.75836 39.8001 4.83988 39.9852C4.92141 40.1703 5.07295 40.3156 5.26134 40.3893C5.3443 40.4205 5.4319 40.4377 5.52053 40.44L8.02721 40.353L8.42415 40.8352L7.84959 43.2784C7.81483 43.4772 7.86041 43.6816 7.9763 43.8468C8.0922 44.0119 8.26892 44.1243 8.46765 44.1593C8.55511 44.1755 8.64481 44.1755 8.73228 44.1593L11.1701 43.5811L11.6522 43.9762L11.5634 46.4811C11.5655 46.581 11.5873 46.6795 11.6276 46.7709C11.6678 46.8624 11.7257 46.945 11.798 47.014C11.8702 47.0831 11.9553 47.1372 12.0485 47.1732C12.1417 47.2093 12.2411 47.2266 12.341 47.2242C12.4297 47.2228 12.5174 47.2056 12.6002 47.1735L14.8785 46.1349L15.4331 46.4322L15.8355 48.9008C15.8797 49.0972 15.9997 49.2682 16.1695 49.3765C16.3392 49.4848 16.5449 49.5217 16.7417 49.479C16.8274 49.4603 16.909 49.4266 16.9828 49.3793L19.0128 47.9166L19.6182 48.0978L20.4936 50.4396C20.5761 50.6244 20.7284 50.769 20.9173 50.8417C21.1062 50.9144 21.3162 50.9093 21.5013 50.8275C21.5807 50.7914 21.6536 50.7424 21.717 50.6825L23.4262 48.85L24.0479 48.9117L25.3674 51.045C25.4848 51.2102 25.6629 51.3221 25.8628 51.3561C26.0626 51.3901 26.2677 51.3434 26.4332 51.2262C26.5035 51.1767 26.5649 51.1154 26.6144 51.045L27.9339 48.9117L28.5556 48.85L30.2648 50.6825C30.4114 50.8218 30.6074 50.8972 30.8096 50.8921C31.0118 50.887 31.2038 50.8018 31.3432 50.6553C31.4031 50.5919 31.4521 50.519 31.4882 50.4396L32.3636 48.0978L32.969 47.9166L34.999 49.3793C35.0838 49.4329 35.1782 49.4692 35.277 49.4863C35.3758 49.5034 35.477 49.5008 35.5748 49.4788C35.6726 49.4567 35.765 49.4156 35.8469 49.3578C35.9288 49.3 35.9986 49.2266 36.0521 49.1418C36.0986 49.0677 36.1323 48.9862 36.1518 48.9008L36.5541 46.4322L37.1088 46.1349L39.3871 47.1735C39.5753 47.2463 39.7848 47.2417 39.9695 47.1605C40.1543 47.0793 40.2994 46.9282 40.3731 46.7403C40.4044 46.6573 40.4215 46.5697 40.4238 46.4811L40.3368 43.9726L40.8171 43.5775L43.2586 44.152C43.4573 44.1869 43.6617 44.1416 43.8271 44.0261C43.9925 43.9106 44.1055 43.7343 44.1413 43.5358C44.1558 43.4482 44.1558 43.3588 44.1413 43.2712L43.5812 40.8315L43.9763 40.3494L46.483 40.4364C46.6851 40.4312 46.8768 40.346 47.0162 40.1995C47.1555 40.0531 47.231 39.8573 47.2261 39.6552C47.225 39.5671 47.2078 39.4798 47.1754 39.3978L46.1368 37.1195L46.4341 36.5631L48.9045 36.1607C49.101 36.1165 49.272 35.9964 49.3803 35.8267C49.4886 35.6569 49.5254 35.4512 49.4827 35.2545C49.463 35.1678 49.4286 35.085 49.3812 35.0098L47.9203 32.9798L48.1016 32.3744L50.4451 31.499C50.5367 31.4587 50.6194 31.4007 50.6885 31.3284C50.7577 31.2561 50.8119 31.1709 50.8481 31.0777C50.8843 30.9844 50.9017 30.8849 50.8995 30.7849C50.8972 30.6849 50.8752 30.5864 50.8348 30.4948C50.7992 30.4136 50.7495 30.3394 50.688 30.2755L48.8556 28.5663L48.9154 27.9447L51.0487 26.6252C51.1486 26.5547 51.23 26.4613 51.2863 26.3528C51.3425 26.2443 51.3719 26.1239 51.3719 26.0017C51.3719 25.8794 51.3425 25.759 51.2863 25.6505C51.23 25.542 51.1486 25.4486 51.0487 25.3782L48.9172 24.0568Z" fill="#050505"/>
</svg>
