<svg width="113" height="84" viewBox="0 0 113 84" fill="none" xmlns="http://www.w3.org/2000/svg">
<path d="M96.44 48.2882C92.9228 48.2928 89.4526 49.0971 86.292 50.6402C85.3024 48.998 84.5382 47.2301 84.02 45.3842C83.7222 43.9372 83.6534 42.4525 83.816 40.9842C84.1579 39.3685 84.6014 37.776 85.144 36.2162C85.124 36.0122 84.9 35.0482 82.648 35.0162C80.396 34.9842 78.456 35.4442 78.248 36.0402C77.8569 37.1288 77.5428 38.2435 77.308 39.3762C75.4442 43.9742 73.15 48.3858 70.456 52.5522C68.9466 50.0778 68.3258 47.1628 68.696 44.2882C69.0379 42.6725 69.4814 41.08 70.024 39.5202C70.004 39.3162 69.78 38.3522 67.528 38.3202C65.276 38.2882 63.336 38.7482 63.128 39.3442C62.92 39.9402 62.656 41.3442 62.188 42.6802C61.72 44.0162 56.256 56.2242 54.824 59.3722C54.088 60.9722 53.452 62.2762 53.004 63.1562C52.9828 63.2133 52.956 63.2683 52.924 63.3202L52.312 64.4882V64.5082C52.004 65.0602 51.676 65.5722 51.512 65.5722C51.2259 64.4294 51.2397 63.2321 51.552 62.0962C52.352 57.8602 54.312 51.2762 54.292 51.0482C54.292 50.9242 54.66 49.7802 53.024 49.1882C52.6446 49.0076 52.2185 48.9491 51.8044 49.0208C51.3904 49.0924 51.0087 49.2906 50.712 49.5882C50.568 49.5882 50.468 49.9362 50.468 49.9362C50.468 49.9362 52.248 42.5322 47.072 42.5322C45.0564 42.9376 43.1422 43.7421 41.442 44.8982C39.7418 46.0543 38.29 47.5387 37.172 49.2642C35.78 50.0202 32.816 51.6362 29.644 53.3762C28.444 54.0522 27.188 54.7282 26.024 55.3762C25.944 55.2962 25.86 55.1922 25.78 55.1122C19.48 48.4002 7.89999 43.6642 8.39999 34.6842C8.58399 31.4122 9.70799 22.8202 30.636 12.3842C47.86 3.89617 61.568 6.24818 63.94 11.4642C67.336 18.9122 56.596 32.7402 38.8 34.7442C36.8312 35.1436 34.7979 35.0954 32.8502 34.6031C30.9026 34.1109 29.0905 33.1871 27.548 31.9002C26.608 30.8762 26.464 30.8162 26.116 31.0202C25.544 31.3282 25.912 32.2482 26.116 32.7802C26.7949 34.0088 27.7131 35.0888 28.8165 35.9566C29.9199 36.8243 31.186 37.462 32.54 37.8322C39.5409 39.3451 46.8402 38.6217 53.408 35.7642C64.208 31.5922 72.608 19.9922 70.144 10.2762C67.668 0.416176 51.304 -2.83583 35.816 2.67617C26.115 5.94047 17.1513 11.0822 9.43599 17.8082C0.903994 25.7882 -0.444008 32.7202 0.107992 35.6282C2.10799 45.9402 16.312 52.6482 21.996 57.6282C21.7392 57.7742 21.4805 57.9169 21.22 58.0562C18.376 59.4682 7.53599 65.1362 4.81999 71.1282C1.75199 77.9282 5.31199 82.7882 7.66399 83.4442C11.208 84.2925 14.9285 84.0131 18.306 82.6449C21.6836 81.2766 24.5496 78.8879 26.504 75.8122C28.1682 73.261 29.1912 70.3454 29.4858 67.3137C29.7804 64.282 29.3379 61.224 28.196 58.4002C28.1767 58.3545 28.1496 58.3126 28.116 58.2762L30.344 56.9682C31.6978 56.1679 33.0688 55.397 34.456 54.6562C33.6233 57.058 33.1344 59.5655 33.004 62.1042C32.7213 65.9953 33.9121 69.8504 36.34 72.9042C36.7094 73.2222 37.1383 73.4637 37.6018 73.6148C38.0653 73.7658 38.5541 73.8234 39.04 73.7842C41.44 73.7842 42.54 71.7842 43.744 69.4082C45.216 66.5042 46.544 63.1282 46.544 63.1282C46.544 63.1282 44.888 72.2522 49.388 72.2522C51.024 72.2522 52.68 70.1242 53.42 69.0522V69.0722L53.544 68.8682L53.808 68.4402V68.4002C54.464 67.2562 55.936 64.6562 58.124 60.3402C60.948 54.7762 63.668 47.8202 63.668 47.8202C63.9303 49.3489 64.2924 50.8588 64.752 52.3402C65.4108 54.1359 66.1899 55.8852 67.084 57.5762C66.428 58.4962 66.02 59.0082 66.02 59.0082L66.04 59.0282C65.508 59.7242 64.936 60.4802 64.3 61.2162C62.4078 63.2965 60.6521 65.4971 59.044 67.8042C58.8051 68.1917 58.7229 68.6557 58.8144 69.1017C58.9058 69.5477 59.1639 69.9419 59.536 70.2042C60.378 70.6423 61.3378 70.8007 62.276 70.6562C63.6898 70.5764 65.08 70.2586 66.388 69.7162C67.652 69.2713 68.8446 68.6448 69.928 67.8562C71.0449 67.0824 71.944 66.0342 72.5387 64.8125C73.1335 63.5908 73.4039 62.2366 73.324 60.8802C73.1982 59.1715 72.7617 57.5001 72.036 55.9482C72.24 55.6602 72.436 55.3762 72.628 55.0882C74.9021 51.6937 76.9518 48.1542 78.764 44.4922C79.0263 46.0209 79.3885 47.5308 79.848 49.0122C80.3914 50.564 81.0603 52.069 81.848 53.5122C79.2318 55.525 77.1711 58.1708 75.86 61.2002C74.572 64.9242 75.572 66.6002 77.46 66.9882C78.4931 67.0594 79.5261 66.8478 80.448 66.3762C81.8035 65.9307 83.0804 65.2747 84.232 64.4322C85.4462 63.7156 86.4632 62.7083 87.1915 61.5011C87.9197 60.2938 88.3364 58.9245 88.404 57.5162C88.3132 56.1104 87.9958 54.7286 87.464 53.4242C90.9164 52.0754 94.6597 51.6454 98.328 52.1762C108.064 53.3202 109.988 59.3962 109.62 61.9562C109.447 62.8637 109.083 63.7238 108.55 64.4786C108.017 65.2334 107.329 65.8654 106.532 66.3322C105.856 66.7602 105.632 66.9042 105.692 67.2122C105.772 67.6642 106.092 67.6402 106.672 67.5602C108.139 67.1041 109.434 66.214 110.385 65.0071C111.336 63.8003 111.899 62.3335 112 60.8002C112.308 54.8002 106.58 48.2202 96.452 48.2802L96.44 48.2882ZM21.32 73.6002C18.088 77.1202 13.588 78.4482 11.644 77.3242C9.55599 76.1242 10.376 70.9242 14.344 67.1962C16.6978 65.0773 19.2419 63.18 21.944 61.5282C22.416 61.2402 23.112 60.8322 23.944 60.3282L24.168 60.2042L24.66 59.8962C25.3689 62.2714 25.4332 64.7924 24.8462 67.2006C24.2593 69.6088 23.0423 71.8175 21.32 73.6002ZM44.844 57.6002C43.72 60.3402 41.368 67.3602 39.936 66.9682C38.708 66.6402 37.936 61.3202 39.692 56.0642C40.5786 53.534 41.8701 51.1645 43.516 49.0482C45.276 47.0842 47.22 46.4282 47.688 47.2282C47.261 50.8077 46.3025 54.3035 44.844 57.6002ZM64.256 66.8882C63.784 67.1322 63.336 67.2882 63.132 67.1762C62.988 67.0962 63.336 66.7762 63.336 66.7762C63.336 66.7762 65.772 64.1562 66.732 62.9722C67.284 62.2762 67.932 61.4602 68.636 60.5362V60.8002C68.636 63.9282 65.608 66.0362 64.26 66.8962L64.256 66.8882ZM79.232 63.4722C78.884 63.2282 78.944 62.4082 80.112 59.8522C80.9241 58.2106 82.0587 56.7495 83.448 55.5562C83.661 56.1617 83.7718 56.7983 83.776 57.4402C83.7917 58.8063 83.3549 60.1393 82.5337 61.2312C81.7124 62.323 80.5529 63.1124 79.236 63.4762L79.232 63.4722Z" fill="#CD6799"/>
</svg>
