<svg width="61" height="52" viewBox="0 0 61 52" fill="none" xmlns="http://www.w3.org/2000/svg">
<path d="M37.9538 0.00216759C37.9538 0.00216759 51.4976 7.70635 55.042 19.9455C58.2356 31.001 55.6781 36.2773 55.6781 36.2773C57.3114 38.0481 58.5984 40.1065 59.473 42.347C60.3516 43.7865 60.8678 45.4159 60.9778 47.0965C61.0878 48.7771 60.7883 50.4593 60.1048 52C60.1048 52 59.8869 47.4911 53.1336 46.5568C46.9445 45.6897 44.6941 51.6857 32.8736 51.3952C26.3241 51.271 19.9046 49.5545 14.1747 46.3954C8.4448 43.2363 3.57848 38.7304 0 33.2706C5.7752 36.4052 13.3411 41.2718 22.7631 40.5239C32.1852 39.7761 34.1523 36.8951 34.1523 36.8951C23.5616 28.5557 14.1871 18.792 6.29804 7.88411C13.7049 14.0514 32.0523 26.3252 31.6253 26.013C24.9142 19.4878 18.774 12.4054 13.2714 4.84275C13.2714 4.84275 40.7989 27.3635 43.0145 27.2204C43.9251 25.354 48.6328 15.6923 37.9516 0L37.9538 0.00216759Z" fill="url(#paint0_linear_267_24)"/>
<defs>
<linearGradient id="paint0_linear_267_24" x1="31.4575" y1="20.8126" x2="30.3172" y2="52.0265" gradientUnits="userSpaceOnUse">
<stop stop-color="#F88535"/>
<stop offset="1" stop-color="#FD2221"/>
</linearGradient>
</defs>
</svg>
