<svg width="103" height="101" viewBox="0 0 103 101" fill="none" xmlns="http://www.w3.org/2000/svg">
<g clip-path="url(#clip0_333_46)">
<path d="M49.8621 4.66491V9.34914H41.4853V12.3956H49.8621V21.7255H53.1368V12.3956H61.7232V9.34914H53.1368V0H49.8621V4.66491Z" fill="#7099A6"/>
<path d="M22.4846 16.5466V23.3442H9.80469V27.6091H22.4846V41.4139H27.1871V27.6091H40.0573V23.3442H27.1871V9.74902H22.4846V16.5466Z" fill="#EB912C"/>
<path d="M75.6217 16.5466V23.3442H62.9418V27.8188H75.6217V41.4139H80.5146V27.8188H93.1941V23.3442H80.5146V9.74902H75.6217V16.5466Z" fill="#59879B"/>
<path d="M48.6438 39.7004V47.3169H34.536V52.991H48.6438V68.2235H54.3555V52.991H68.4628V47.3169H54.3555V32.084H48.6438V39.7004Z" fill="#E8762C"/>
<path d="M90.129 43.5465V48.3261H81.5426V52.1911H90.129V61.7305H94.4128V52.1911H102.999V48.3261H94.4128V38.7866H90.129V43.5465Z" fill="#5B6591"/>
<path d="M8.3772 43.9651V48.535H0V51.7718H8.3772V60.9117H11.6515V51.7718L20.2379 51.4672V48.535H11.6515V39.3955H8.3772V43.9651Z" fill="#7099A6"/>
<path d="M22.4846 65.4812V72.2788H9.80469V76.7533H22.4846V90.3485H27.3775V76.7533H40.0573V72.2788H27.3775V58.6836H22.4846V65.4812Z" fill="#C72035"/>
<path d="M75.6217 65.4812V72.2788H62.9418V76.5441H75.6217V90.3485H80.5146V76.5441H93.1941V72.2788H80.5146V58.6836H75.6217V65.4812Z" fill="#1F447E"/>
<path d="M49.4625 82.7514V87.5116H40.8761V91.377H49.4625V100.916H53.7463V91.377H62.3327V87.5116H53.7463V77.9722H49.4625V82.7514Z" fill="#5B6591"/>
</g>
<defs>
<clipPath id="clip0_333_46">
<rect width="103" height="101" fill="white"/>
</clipPath>
</defs>
</svg>
