<svg width="110" height="118" viewBox="0 0 110 118" fill="none" xmlns="http://www.w3.org/2000/svg">
<g clip-path="url(#clip0_300_79)">
<path d="M62.6166 18.1157V36.2335L93.9241 54.3512V36.2335L62.6171 18.1157H62.6166ZM0 36.2335V54.3512L15.6535 63.4079V45.2923L0 36.2335ZM46.961 45.2923L31.3075 54.3508V108.7L46.961 117.759V81.5252L62.6166 90.5841V72.4663L46.961 63.4079V45.2923Z" fill="#E55B2D"/>
<path d="M62.6167 18.1157L15.6536 45.2923V63.4079L46.961 45.2923V63.4079L62.6167 54.3512V18.1157V18.1157ZM109.58 27.1746L93.9242 36.2335V54.3512L109.58 45.2923V27.1746ZM78.2706 63.4079L62.6171 72.4668V90.5845L78.2706 81.5252V63.4075V63.4079ZM62.6171 90.5841L46.961 81.5252V117.759L62.6167 108.7V90.5845L62.6171 90.5841Z" fill="#ED8E24"/>
<path d="M62.6166 0L0 36.2333L15.6535 45.2922L62.6166 18.1156L93.9241 36.2333L109.58 27.1745L62.6166 0ZM62.6166 54.3506L46.961 63.4073L62.6166 72.4666L78.2702 63.4078L62.6166 54.3511V54.3506Z" fill="#F8BF3C"/>
</g>
<defs>
<clipPath id="clip0_300_79">
<rect width="110" height="118" fill="white"/>
</clipPath>
</defs>
</svg>
