<svg width="127" height="128" viewBox="0 0 127 128" fill="none" xmlns="http://www.w3.org/2000/svg">
<g clip-path="url(#clip0_333_56)">
<path d="M0.0430905 1.77145C-0.221327 0.704946 0.771356 -0.247394 1.83101 0.0570385L32.7029 8.91128C32.98 8.91063 33.2516 8.98863 33.4858 9.13614L94.3714 26.5985C94.6234 26.6034 94.8724 26.6751 95.0887 26.8041L125.963 35.6593C127.023 35.9638 127.355 37.2981 126.559 38.0602L33.393 127.338C32.5978 128.101 31.2727 127.719 31.0083 126.652L15.554 64.3259C15.5332 64.2618 15.517 64.1965 15.5053 64.1302L0.0430905 1.77145ZM26.4879 96.5162L33.1951 123.566L53.393 104.21L26.4879 96.5162ZM47.293 75.1248L27.7375 93.9023L53.7884 101.353L47.293 75.1248ZM50.1957 74.9242L56.6707 101.069L76.1726 82.3813L50.1957 74.9242ZM18.9071 65.9424L25.4103 92.1716L44.9426 73.4164L18.9071 65.9424ZM70.354 52.9556L50.4849 72.035L76.9629 79.636L70.354 52.9556ZM73.138 52.2771L79.747 78.9564L99.6706 59.8647L73.138 52.2771ZM39.6115 44.1024L19.6998 63.1986L46.2264 70.8129L39.6115 44.1024ZM42.3847 43.3823L48.8805 69.61L68.4361 50.832L42.3852 43.3823H42.3847ZM11.105 34.4752L17.7154 61.1382L37.6128 42.0559L11.105 34.4752ZM93.5518 30.7736L73.9963 49.551L100.047 57.0017L93.5518 30.7736ZM96.3463 30.136L102.934 56.7373L122.782 37.7182L96.3463 30.136ZM62.6814 21.9786L43.2142 40.6484L69.1425 48.063L62.6814 21.9786ZM65.46 21.2774L71.9648 47.5366L91.5258 28.7533L65.46 21.2774ZM31.9176 13.0864L12.3621 31.8643L38.413 39.314L31.9176 13.0864ZM34.7146 12.4592L41.1941 38.6211L60.702 19.9129L34.7146 12.4592ZM3.42 3.48388L10.0295 30.139L29.8841 11.0739L3.42 3.48388Z" fill="white"/>
</g>
<defs>
<clipPath id="clip0_333_56">
<rect width="127" height="128" fill="white"/>
</clipPath>
</defs>
</svg>
