<svg width="29" height="24" viewBox="0 0 29 24" fill="none" xmlns="http://www.w3.org/2000/svg">
<path d="M29 2.82353C27.9326 3.31765 26.782 3.64235 25.5899 3.79765C26.8098 3.04941 27.7524 1.86353 28.196 0.437647C27.0454 1.14353 25.7701 1.63765 24.4254 1.92C23.3303 0.705883 21.7916 0 20.0449 0C16.7873 0 14.1257 2.71059 14.1257 6.05647C14.1257 6.53647 14.1812 7.00235 14.2782 7.44C9.34321 7.18588 4.94885 4.77176 2.0239 1.11529C1.51099 2.00471 1.21989 3.04941 1.21989 4.15059C1.21989 6.25412 2.25956 8.11765 3.86759 9.17647C2.88337 9.17647 1.96845 8.89412 1.16444 8.47059V8.51294C1.16444 11.4494 3.21606 13.9059 5.93308 14.4565C5.06076 14.6996 4.14497 14.7334 3.25765 14.5553C3.63416 15.7588 4.37154 16.8119 5.36613 17.5665C6.36073 18.3211 7.56252 18.7393 8.80258 18.7624C6.70054 20.4571 4.09493 21.3732 1.41396 21.36C0.942639 21.36 0.471319 21.3318 0 21.2753C2.63384 22.9976 5.76673 24 9.12142 24C20.0449 24 26.0473 14.7671 26.0473 6.76235C26.0473 6.49412 26.0473 6.24 26.0335 5.97176C27.1979 5.12471 28.196 4.05176 29 2.82353V2.82353Z" fill="#F2E6FF"/>
</svg>
