<svg width="31" height="21" viewBox="0 0 31 21" fill="none" xmlns="http://www.w3.org/2000/svg">
<path d="M12.5833 14.8751L20.152 10.5001L12.5833 6.12508V14.8751ZM29.4416 3.45633C29.6312 4.14175 29.7625 5.0605 29.85 6.22716C29.952 7.39383 29.9958 8.40008 29.9958 9.27508L30.0833 10.5001C30.0833 13.6938 29.85 16.0417 29.4416 17.5438C29.077 18.8563 28.2312 19.7022 26.9187 20.0667C26.2333 20.2563 24.9791 20.3876 23.0541 20.4751C21.1583 20.5772 19.4229 20.6209 17.8187 20.6209L15.5 20.7084C9.38954 20.7084 5.58329 20.4751 4.08121 20.0667C2.76871 19.7022 1.92288 18.8563 1.55829 17.5438C1.36871 16.8584 1.23746 15.9397 1.14996 14.773C1.04788 13.6063 1.00413 12.6001 1.00413 11.7251L0.916626 10.5001C0.916626 7.30633 1.14996 4.95841 1.55829 3.45633C1.92288 2.14383 2.76871 1.298 4.08121 0.933415C4.76663 0.743831 6.02079 0.612581 7.94579 0.525081C9.84163 0.422998 11.577 0.379248 13.1812 0.379248L15.5 0.291748C21.6104 0.291748 25.4166 0.525081 26.9187 0.933415C28.2312 1.298 29.077 2.14383 29.4416 3.45633V3.45633Z" fill="#F2E6FF"/>
</svg>
