<svg width="108" height="108" viewBox="0 0 108 108" fill="none" xmlns="http://www.w3.org/2000/svg">
<path d="M7.78 50.5515C8.41413 38.8986 12.3008 28.6492 19.2121 21.1466C26.7468 12.96 38.2109 7.6875 53.9963 7.6875C69.7782 7.6875 81.2423 12.96 88.7806 21.1466C96.3651 29.3796 100.305 40.9185 100.305 53.9929C100.305 67.0708 96.3651 78.6097 88.7806 86.8462C81.2423 95.0329 69.7818 100.305 53.9963 100.305C38.2144 100.305 26.7503 95.0329 19.2121 86.8462C18.9242 86.5339 18.6416 86.2168 18.3642 85.8951C16.6295 87.6589 14.41 88.8678 11.9873 89.3685C12.6214 90.1594 13.2805 90.9253 13.9681 91.6734C23.0524 101.538 36.5258 107.43 53.9963 107.43C71.4668 107.43 84.9402 101.538 94.021 91.6734C103.059 81.8588 107.43 68.4637 107.43 53.9964C107.43 39.5291 103.059 26.1341 94.021 16.3194C84.9366 6.45487 71.4668 0.5625 53.9999 0.5625C36.5258 0.5625 23.0524 6.45487 13.9681 16.3194C4.93 26.1341 0.562378 39.5291 0.562378 53.9964V54.1817C2.4985 52.2033 5.03762 50.9249 7.78 50.5479V50.5515Z" fill="#F2E6FF"/>
<path d="M18.0544 79.5288C17.5321 81.4054 16.4103 83.0596 14.8602 84.2392C13.3101 85.4189 11.4167 86.0591 9.46877 86.0624C7.10669 86.0624 4.84135 85.1241 3.1711 83.4538C1.50086 81.7836 0.562523 79.5182 0.562523 77.1562V62.9062C0.528839 61.7154 0.734288 60.5299 1.16672 59.4199C1.59915 58.3099 2.24978 57.2979 3.08013 56.4437C3.91049 55.5896 4.9037 54.9106 6.00102 54.447C7.09835 53.9833 8.27752 53.7444 9.46877 53.7444C10.66 53.7444 11.8392 53.9833 12.9365 54.447C14.0338 54.9106 15.0271 55.5896 15.8574 56.4437C16.6878 57.2979 17.3384 58.3099 17.7708 59.4199C18.2033 60.5299 18.4087 61.7154 18.375 62.9062V77.1562C18.375 77.9755 18.2646 78.7735 18.0544 79.5288ZM36.2125 19.8569V19.8605L36.2018 19.9175L36.1412 20.1847C35.7366 21.7176 35.0425 23.159 34.0963 24.4312C32.397 26.6933 29.3475 29.0624 23.7188 29.0624C23.2464 29.0624 22.7933 29.2501 22.4592 29.5841C22.1252 29.9182 21.9375 30.3712 21.9375 30.8437C21.9375 31.3161 22.1252 31.7691 22.4592 32.1032C22.7933 32.4372 23.2464 32.6249 23.7188 32.6249C30.5588 32.6249 34.6307 29.6502 36.9463 26.5687C38.1773 24.916 39.0773 23.041 39.5968 21.0468C39.6306 20.9097 39.6614 20.7719 39.6895 20.6335L39.7144 20.5124L39.7215 20.4732V20.459L39.7251 20.4518C39.804 19.986 39.6946 19.508 39.421 19.1228C39.1474 18.7377 38.732 18.477 38.2662 18.3981C37.8004 18.3192 37.3224 18.4286 36.9372 18.7021C36.5521 18.9757 36.2914 19.3911 36.2125 19.8569V19.8569ZM71.7983 19.9175L71.7876 19.8605C71.6998 19.4038 71.437 18.9996 71.0552 18.7342C70.6734 18.4687 70.203 18.3631 69.7444 18.4398C69.2857 18.5166 68.8753 18.7696 68.6008 19.1449C68.3262 19.5202 68.2093 19.988 68.275 20.4483C68.1253 19.9175 68.275 20.4518 68.275 20.4518V20.459L68.2785 20.4732L68.2856 20.5088L68.2928 20.5587L68.3106 20.6335C68.332 20.7368 68.3605 20.8758 68.4032 21.0468C68.9228 23.041 69.8228 24.916 71.0537 26.5687C73.3693 29.6502 77.4413 32.6249 84.2813 32.6249C84.7537 32.6249 85.2068 32.4372 85.5408 32.1032C85.8749 31.7691 86.0625 31.3161 86.0625 30.8437C86.0625 30.3712 85.8749 29.9182 85.5408 29.5841C85.2068 29.2501 84.7537 29.0624 84.2813 29.0624C78.6525 29.0624 75.5995 26.6933 73.9037 24.4312C72.9576 23.159 72.2635 21.7176 71.8588 20.1847C71.8367 20.0961 71.8165 20.007 71.7983 19.9175V19.9175ZM46.875 50.4374C46.875 51.8409 46.5986 53.2307 46.0615 54.5273C45.5244 55.824 44.7372 57.0022 43.7447 57.9946C42.7523 58.987 41.5741 59.7743 40.2775 60.3114C38.9808 60.8485 37.591 61.1249 36.1875 61.1249C34.784 61.1249 33.3943 60.8485 32.0976 60.3114C30.8009 59.7743 29.6227 58.987 28.6303 57.9946C27.6379 57.0022 26.8507 55.824 26.3136 54.5273C25.7765 53.2307 25.5 51.8409 25.5 50.4374C25.5 47.6029 26.626 44.8845 28.6303 42.8802C30.6346 40.8759 33.353 39.7499 36.1875 39.7499C39.022 39.7499 41.7404 40.8759 43.7447 42.8802C45.749 44.8845 46.875 47.6029 46.875 50.4374V50.4374ZM71.8125 61.1249C74.647 61.1249 77.3654 59.9989 79.3697 57.9946C81.374 55.9903 82.5 53.2719 82.5 50.4374C82.5 47.6029 81.374 44.8845 79.3697 42.8802C77.3654 40.8759 74.647 39.7499 71.8125 39.7499C68.978 39.7499 66.2596 40.8759 64.2553 42.8802C62.251 44.8845 61.125 47.6029 61.125 50.4374C61.125 53.2719 62.251 55.9903 64.2553 57.9946C66.2596 59.9989 68.978 61.1249 71.8125 61.1249ZM40.7938 81.4561C40.126 80.788 39.7508 79.8821 39.7508 78.9374C39.7508 77.9928 40.126 77.0868 40.7938 76.4187L40.7974 76.4116L40.8045 76.408L40.8152 76.3973L40.8437 76.3688L40.915 76.2976L41.1323 76.1017C41.3626 75.9029 41.6003 75.7127 41.8448 75.5317C42.4397 75.0828 43.2876 74.5199 44.392 73.9677C46.6078 72.8633 49.8212 71.8124 54 71.8124C58.1788 71.8124 61.3922 72.8598 63.6081 73.9677C64.7125 74.5199 65.5603 75.0828 66.1588 75.5317C66.48 75.7716 66.7891 76.0272 67.0851 76.2976L67.1563 76.3688L67.1848 76.3973L67.1955 76.408L67.2026 76.4116L67.2062 76.4187C67.8615 77.0857 68.2284 77.9836 68.2276 78.9186C68.2268 79.8536 67.8584 80.7509 67.2019 81.4167C66.5454 82.0825 65.6535 82.4636 64.7185 82.4776C63.7836 82.4916 62.8806 82.1375 62.2045 81.4917L62.176 81.4668C61.6341 81.0303 61.0464 80.654 60.4232 80.3446C59.0766 79.6642 56.9462 78.9374 54 78.9374C51.0538 78.9374 48.9235 79.6713 47.5768 80.341C46.9535 80.6516 46.3657 81.029 45.8241 81.4668L45.7956 81.4917C45.1244 82.144 44.2234 82.506 43.2874 82.4993C42.3514 82.4927 41.4557 82.1179 40.7938 81.4561V81.4561Z" fill="#F2E6FF"/>
</svg>
