<svg width="26" height="26" viewBox="0 0 26 26" fill="none" xmlns="http://www.w3.org/2000/svg">
<path d="M23.8951 12.2685L20.0067 16.1569C19.3394 16.8243 18.5471 17.3537 17.6752 17.7149C16.8033 18.0761 15.8687 18.262 14.9249 18.262C13.9811 18.262 13.0466 18.0761 12.1746 17.7149C11.3027 17.3537 10.5105 16.8243 9.84313 16.1569C9.67861 16.0199 9.54445 15.8502 9.44921 15.6585C9.35396 15.4668 9.29973 15.2573 9.28997 15.0435C9.28021 14.8297 9.31514 14.6162 9.39252 14.4166C9.46991 14.217 9.58805 14.0358 9.73941 13.8844C9.89077 13.733 10.072 13.6149 10.2716 13.5375C10.4712 13.4601 10.6847 13.4252 10.8985 13.435C11.1124 13.4447 11.3218 13.499 11.5135 13.5942C11.7052 13.6894 11.8749 13.8236 12.0119 13.9881C12.7855 14.7538 13.83 15.1832 14.9185 15.1832C16.007 15.1832 17.0515 14.7538 17.8251 13.9881L21.7135 10.0998C22.4844 9.3289 22.9174 8.28335 22.9174 7.19315C22.9174 6.10296 22.4844 5.05741 21.7135 4.28652C20.9426 3.51564 19.897 3.08256 18.8068 3.08256C17.7166 3.08256 16.6711 3.51564 15.9002 4.28652L14.6683 5.53131C14.379 5.8206 13.9866 5.98313 13.5775 5.98313C13.1684 5.98313 12.776 5.8206 12.4867 5.53131C12.1974 5.24201 12.0349 4.84964 12.0349 4.44052C12.0349 4.03139 12.1974 3.63902 12.4867 3.34973L13.7315 2.10495C15.0792 0.757172 16.9072 0 18.8133 0C20.7193 0 22.5473 0.757172 23.8951 2.10495C25.2428 3.45272 26 5.2807 26 7.18674C26 9.09278 25.2428 10.9208 23.8951 12.2685V12.2685ZM11.3317 20.4687L10.0998 21.7135C9.3289 22.4844 8.28335 22.9174 7.19315 22.9174C6.10296 22.9174 5.05741 22.4844 4.28652 21.7135C3.51564 20.9426 3.08256 19.897 3.08256 18.8068C3.08256 17.7166 3.51564 16.6711 4.28652 15.9002L8.17486 12.0119C8.94852 11.2462 9.99303 10.8168 11.0815 10.8168C12.17 10.8168 13.2145 11.2462 13.9881 12.0119C14.2834 12.2576 14.6598 12.3842 15.0435 12.3666C15.4272 12.3491 15.7906 12.1888 16.0622 11.9172C16.3338 11.6456 16.4941 11.2823 16.5116 10.8985C16.5292 10.5148 16.4026 10.1384 16.1569 9.84313C15.4904 9.1742 14.6984 8.64344 13.8264 8.28128C12.9543 7.91912 12.0193 7.7327 11.0751 7.7327C10.1308 7.7327 9.19584 7.91912 8.32378 8.28128C7.45173 8.64344 6.65975 9.1742 5.99329 9.84313L2.10495 13.7315C0.757172 15.0792 0 16.9072 0 18.8133C0 20.7193 0.757172 22.5473 2.10495 23.8951C3.45272 25.2428 5.2807 26 7.18674 26C9.09278 26 10.9208 25.2428 12.2685 23.8951L13.5133 22.6503C13.8026 22.361 13.9651 21.9686 13.9651 21.5595C13.9651 21.1504 13.8026 20.758 13.5133 20.4687C13.224 20.1794 12.8316 20.0169 12.4225 20.0169C12.0134 20.0169 11.621 20.1794 11.3317 20.4687V20.4687Z" fill="#F2E6FF"/>
</svg>
