<svg version="1.1" id="Layer_1" xmlns="http://www.w3.org/2000/svg" xmlns:xlink="http://www.w3.org/1999/xlink" x="0px" y="0px"
	 width="100%" viewBox="0 0 66 66" enable-background="new 0 0 66 66" xml:space="preserve">
<path fill="#030303" opacity="1.000000" stroke="none" 
	d="
M37.000000,67.000000 
	C24.689117,67.000000 12.878236,67.000000 1.033677,67.000000 
	C1.033677,45.064232 1.033677,23.128405 1.033677,1.096287 
	C22.893692,1.096287 44.787949,1.096287 66.841103,1.096287 
	C66.841103,22.999086 66.841103,44.999432 66.841103,67.000000 
	C57.129307,67.000000 47.314655,67.000000 37.000000,67.000000 
M37.583019,46.044796 
	C42.551403,49.935871 48.016468,50.131363 53.610920,47.866894 
	C57.511669,46.287987 59.894497,35.103889 57.094452,32.102276 
	C56.587563,31.558891 55.671406,31.158966 54.923260,31.122526 
	C52.430099,31.001089 49.879887,30.796211 47.451519,31.210032 
	C46.464878,31.378166 45.097378,33.038635 45.071308,34.050186 
	C45.046097,35.028568 46.359013,36.298027 47.390705,36.966591 
	C48.229359,37.510059 49.521683,37.353447 50.447475,37.483986 
	C51.345303,40.996254 49.660149,42.769207 46.937649,41.825756 
	C44.228428,40.886909 40.948879,39.049572 39.870193,36.707672 
	C38.905533,34.613323 39.695000,30.307278 41.362217,28.779072 
	C43.219006,27.077097 47.190887,26.445169 49.786762,27.114151 
	C52.735592,27.874096 54.884895,28.713173 56.364956,25.482271 
	C58.022141,21.864721 54.674694,21.219051 52.694317,20.276073 
	C46.375439,17.267286 38.670597,19.481558 34.439999,25.223742 
	C30.019958,31.223055 31.020601,39.160061 37.583019,46.044796 
M29.307632,38.675877 
	C29.312654,33.677094 29.266716,28.677525 29.343981,23.679859 
	C29.383207,21.142607 28.713232,19.473682 25.767216,19.529266 
	C22.987888,19.581703 21.992476,20.974646 22.049356,23.643595 
	C22.148745,28.307045 22.196589,32.978546 22.033817,37.638561 
	C21.888510,41.798664 19.656473,43.110764 16.217440,40.862335 
	C13.763514,39.257965 11.445677,39.004025 10.494424,41.625134 
	C9.960374,43.096664 11.118115,46.138710 12.493489,47.184341 
	C19.140368,52.237648 28.819935,47.567387 29.307632,38.675877 
z"/>
<path fill="#F6F6F6" opacity="1.000000" stroke="none" 
	d="
M37.294132,45.807919 
	C31.020601,39.160061 30.019958,31.223055 34.439999,25.223742 
	C38.670597,19.481558 46.375439,17.267286 52.694317,20.276073 
	C54.674694,21.219051 58.022141,21.864721 56.364956,25.482271 
	C54.884895,28.713173 52.735592,27.874096 49.786762,27.114151 
	C47.190887,26.445169 43.219006,27.077097 41.362217,28.779072 
	C39.695000,30.307278 38.905533,34.613323 39.870193,36.707672 
	C40.948879,39.049572 44.228428,40.886909 46.937649,41.825756 
	C49.660149,42.769207 51.345303,40.996254 50.447475,37.483986 
	C49.521683,37.353447 48.229359,37.510059 47.390705,36.966591 
	C46.359013,36.298027 45.046097,35.028568 45.071308,34.050186 
	C45.097378,33.038635 46.464878,31.378166 47.451519,31.210032 
	C49.879887,30.796211 52.430099,31.001089 54.923260,31.122526 
	C55.671406,31.158966 56.587563,31.558891 57.094452,32.102276 
	C59.894497,35.103889 57.511669,46.287987 53.610920,47.866894 
	C48.016468,50.131363 42.551403,49.935871 37.294132,45.807919 
z"/>
<path fill="#F4F4F4" opacity="1.000000" stroke="none" 
	d="
M29.276821,39.097885 
	C28.819935,47.567387 19.140368,52.237648 12.493489,47.184341 
	C11.118115,46.138710 9.960374,43.096664 10.494424,41.625134 
	C11.445677,39.004025 13.763514,39.257965 16.217440,40.862335 
	C19.656473,43.110764 21.888510,41.798664 22.033817,37.638561 
	C22.196589,32.978546 22.148745,28.307045 22.049356,23.643595 
	C21.992476,20.974646 22.987888,19.581703 25.767216,19.529266 
	C28.713232,19.473682 29.383207,21.142607 29.343981,23.679859 
	C29.266716,28.677525 29.312654,33.677094 29.276821,39.097885 
z"/>
</svg>